<?xml version="1.0" standalone="no"?>
<!DOCTYPE svg PUBLIC "-//W3C//DTD SVG 1.1//EN" "http://www.w3.org/Graphics/SVG/1.1/DTD/svg11.dtd" >
<svg xmlns="http://www.w3.org/2000/svg" xmlns:xlink="http://www.w3.org/1999/xlink" version="1.1">
<metadata>
Created by FontForge 20150318 at Tue Aug 25 13:03:25 2015
 By uniteet7
(C) 2003 Bitstream Inc. &#38; Font Diner. All Rights Reserved. Designed by Stuart Sandler. http://www.fontdiner.com/ ROE
</metadata>
<defs>
<font id="CandyRoundBTN" horiz-adv-x="1024" >
  <font-face 
    font-family="CandyRoundBTN"
    font-weight="400"
    font-stretch="normal"
    units-per-em="2048"
    panose-1="2 15 6 4 2 1 2 4 3 6"
    ascent="1638"
    descent="-410"
    x-height="897"
    cap-height="1415"
    bbox="-512 -508 2109 1894"
    underline-thickness="41"
    underline-position="-252"
    unicode-range="U+0020-F002"
  />
<missing-glyph 
d="M128 0v1810h768v-1810h-768zM256 128h512v1554h-512v-1554z" />
    <glyph glyph-name=".notdef" 
d="M128 0v1810h768v-1810h-768zM256 128h512v1554h-512v-1554z" />
    <glyph glyph-name=".null" horiz-adv-x="0" 
 />
    <glyph glyph-name="nonmarkingreturn" horiz-adv-x="487" 
 />
    <glyph glyph-name="space" unicode=" " horiz-adv-x="487" 
 />
    <glyph glyph-name="exclam" unicode="!" horiz-adv-x="420" 
d="M297 1368l-57 -1083q-3 -58 -64 -58q-24 0 -41.5 19.5t-15.5 44.5l57 1083q3 58 64 58q24 0 41 -20t16 -44zM246 29q0 -32 -22.5 -54t-53.5 -22t-53.5 22t-22.5 54q0 31 22.5 53t53.5 22t53.5 -22t22.5 -53z" />
    <glyph glyph-name="quotedbl" unicode="&#x22;" horiz-adv-x="518" 
d="M436 1282l-10 -352q-2 -60 -64 -60q-24 0 -42 19.5t-17 44.5l12 350q2 59 62 59q25 0 42.5 -18t16.5 -43zM215 1282l-12 -352q-2 -60 -62 -60q-24 0 -42 19.5t-17 44.5l10 350q2 59 64 59q24 0 42 -18t17 -43z" />
    <glyph glyph-name="numbersign" unicode="#" horiz-adv-x="1575" 
d="M1470 985l-43 -123h-311l-94 -272h330l-43 -123h-332l-166 -469h-145l168 469h-265l-168 -469h-143l166 469h-320l43 123h320l96 272h-342l43 123h344l168 471h146l-166 -471h260l168 471h143l-164 -471h307zM973 862h-264l-95 -272h263z" />
    <glyph glyph-name="dollar" unicode="$" horiz-adv-x="877" 
d="M807 401q0 -128 -85.5 -223t-213.5 -117q0 -13 1 -46q1 -29 1 -46q0 -61 -59 -61q-47 0 -59 52q-5 21 -5 99q-119 13 -212 94t-120 197q-2 9 -2 12q0 25 18.5 43.5t43.5 18.5q41 0 57 -47q60 -181 213 -205l-4 490q-135 53 -199 119q-80 83 -80 212q0 128 72.5 212.5
t198.5 107.5q0 13 -1 46q-1 29 -1 46q0 61 61 61q48 0 58 -53q4 -15 4 -96q180 -19 276 -189q37 -65 37 -92q0 -25 -18.5 -43t-43.5 -18q-39 0 -57 43q-69 163 -192 184l4 -457q150 -56 217 -119q90 -85 90 -225zM379 795l-4 401q-154 -39 -154 -201q0 -129 158 -200z
M688 401q0 85 -54 137q-39 38 -132 76l4 -436q77 19 129.5 82t52.5 141z" />
    <glyph glyph-name="percent" unicode="%" horiz-adv-x="1190" 
d="M561 997q0 -135 -50 -225q-63 -113 -187 -113q-130 0 -200 95q-63 84 -63 219q0 137 53 251q67 144 189 144q124 0 197 -129q61 -108 61 -242zM979 1329q0 -12 -6 -24l-637 -1340q-16 -33 -51 -33q-58 0 -58 58q0 11 6 24l637 1340q16 32 52 32q57 0 57 -57zM1128 289
q0 -136 -50 -226q-63 -112 -187 -112q-130 0 -200 94q-62 84 -62 219q0 138 53 251q67 144 188 144q124 0 197 -128q61 -108 61 -242zM449 995q0 84 -33 165q-42 104 -113 104q-63 0 -101 -121q-28 -90 -28 -172q0 -207 150 -207q125 0 125 231zM1016 287q0 84 -33 164
q-42 104 -113 104q-63 0 -101 -121q-28 -90 -28 -172q0 -207 150 -207q125 0 125 232z" />
    <glyph glyph-name="ampersand" unicode="&#x26;" horiz-adv-x="1106" 
d="M1049 23q0 -62 -60 -62q-26 0 -88 64q-53 54 -113 118q-172 -157 -342 -157q-164 0 -272 101.5t-108 264.5q0 234 253 389q-116 200 -116 326q0 145 85.5 239.5t229.5 94.5q134 0 214 -103q69 -90 69 -211q0 -209 -316 -380q116 -170 308 -388q23 25 81 130
q13 25 27.5 51t44.5 26q62 0 62 -59q0 -40 -54 -124q-46 -72 -84 -110q57 -61 105 -110q23 -23 47 -45q27 -29 27 -55zM682 1087q0 78 -39 134q-46 65 -127 65q-92 0 -143 -63q-47 -58 -47 -156q0 -92 98 -266q258 129 258 286zM711 225q-198 222 -332 422
q-191 -109 -191 -295q0 -113 73 -182.5t185 -69.5q137 0 265 125z" />
    <glyph glyph-name="quotesingle" unicode="'" horiz-adv-x="297" 
d="M215 1282l-12 -352q-2 -60 -62 -60q-24 0 -42 20t-17 44l10 350q2 59 64 59q24 0 42 -18t17 -43z" />
    <glyph glyph-name="parenleft" unicode="(" horiz-adv-x="479" 
d="M356 -31q0 -61 -61 -61q-44 0 -92 106q-121 267 -121 662q0 391 123 647q48 100 90 100q61 0 61 -61q0 -16 -12 -37q-139 -238 -139 -649q0 -414 141 -672q10 -19 10 -35z" />
    <glyph glyph-name="parenright" unicode=")" horiz-adv-x="479" 
d="M397 676q0 -395 -121 -662q-48 -106 -92 -106q-61 0 -61 61q0 16 10 35q141 258 141 672q0 411 -139 649q-12 21 -12 37q0 61 61 61q42 0 90 -100q123 -256 123 -647z" />
    <glyph glyph-name="asterisk" unicode="*" horiz-adv-x="770" 
d="M702 879q0 -54 -55 -54q-14 0 -29 9l-180 102v-209q0 -53 -53 -53q-55 0 -55 53v209l-180 -102q-15 -9 -27 -9q-55 0 -55 54q0 30 28 47l180 106l-182 105q-26 15 -26 47q0 53 55 53q12 0 27 -8l180 -103v209q0 54 55 54q53 0 53 -54v-209l180 103q15 8 29 8q55 0 55 -53
q0 -32 -26 -47l-182 -105l180 -106q28 -17 28 -47z" />
    <glyph glyph-name="plus" unicode="+" horiz-adv-x="1706" 
d="M1452 553h-539v-553h-118v553h-541v117h541v551h118v-551h539v-117z" />
    <glyph glyph-name="comma" unicode="," horiz-adv-x="274" 
d="M217 47q0 -55 -40 -101q-47 -52 -118 -52q24 12 47.5 43.5t24.5 56.5q-70 0 -70 74q0 31 22.5 53t53.5 22q33 0 56.5 -26t23.5 -70z" />
    <glyph glyph-name="hyphen" unicode="-" horiz-adv-x="819" 
d="M758 477q0 -60 -62 -59l-575 8q-60 1 -60 61q0 61 62 60l575 -8q60 -1 60 -62z" />
    <glyph glyph-name="hyphen" unicode="&#x2010;" horiz-adv-x="819" 
d="M758 477q0 -60 -62 -59l-575 8q-60 1 -60 61q0 61 62 60l575 -8q60 -1 60 -62z" />
    <glyph glyph-name="period" unicode="." horiz-adv-x="274" 
d="M213 68q0 -32 -22 -54t-54 -22q-31 0 -53.5 22t-22.5 54q0 31 22.5 53t53.5 22q32 0 54 -22t22 -53z" />
    <glyph glyph-name="slash" unicode="/" horiz-adv-x="618" 
d="M557 1327q0 -9 -2 -16l-375 -1323q-12 -43 -57 -43q-62 0 -62 59q0 9 2 16l375 1323q12 43 58 43q61 0 61 -59z" />
    <glyph glyph-name="zero" unicode="0" horiz-adv-x="973" 
d="M922 631q0 -271 -81 -439q-107 -225 -345 -225q-233 0 -350 207q-95 168 -95 422q0 267 84 490q113 303 332 303q243 0 364 -276q91 -206 91 -482zM799 631q0 216 -64 394q-89 249 -268 249q-128 0 -213 -215q-80 -200 -80 -461q0 -205 61 -338q83 -178 261 -178
q303 0 303 549z" />
    <glyph glyph-name="one" unicode="1" horiz-adv-x="666" 
d="M664 33q0 -56 -62 -56l-524 7q-60 0 -60 57q0 58 62 57l190 -2l4 1180l-196 4q-60 1 -60 57q0 59 62 58l258 -4q59 -1 59 -62l-4 -1235l211 -2q60 0 60 -59z" />
    <glyph glyph-name="two" unicode="2" horiz-adv-x="909" 
d="M840 29q0 -58 -62 -58l-635 6q-61 1 -61 62q0 195 161 379q150 148 300 295q162 174 162 344q0 112 -77.5 183t-187.5 71q-165 0 -245 -162q-14 -33 -27 -66q-20 -36 -53 -36q-62 0 -62 59q0 6 2 14q34 134 141 219.5t244 85.5q160 0 272 -103q115 -107 115 -265
q0 -189 -149 -367q-143 -143 -287 -285q-162 -166 -182 -313l569 -6q62 -1 62 -57z" />
    <glyph glyph-name="three" unicode="3" horiz-adv-x="909" 
d="M840 350q0 -167 -103 -288q-110 -130 -278 -130q-186 0 -296 110q-108 107 -108 286q0 65 62 65q48 0 55 -63q32 -283 283 -283q121 0 195 98q67 88 67 207q0 140 -83 220.5t-218 80.5q-60 0 -60 58q0 57 60 57q280 0 280 279q0 116 -59 195q-66 87 -182 87
q-236 0 -260 -280q-6 -64 -58 -64q-63 0 -63 66q0 181 105 287t276 106q173 0 273 -119q91 -110 91 -278q0 -114 -56 -202q-58 -92 -163 -132q119 -37 182 -140q58 -94 58 -223z" />
    <glyph glyph-name="four" unicode="4" horiz-adv-x="965" 
d="M944 395q0 -60 -63 -57l-154 6l-6 -295q-1 -61 -62 -61q-24 0 -41.5 18.5t-17.5 42.5l4 301l-526 21q-58 2 -58 59q0 17 11 33l600 948q18 29 51 29q25 0 43.5 -18.5t17.5 -43.5l-14 -917l158 -6q57 -3 57 -60zM618 1180l-444 -699l432 -16z" />
    <glyph glyph-name="five" unicode="5" horiz-adv-x="932" 
d="M862 432q0 -200 -121 -328q-125 -131 -325 -131q-171 0 -301 99q-62 46 -62 80q0 57 60 57q23 0 47 -23q104 -98 256 -98q149 0 237 98q86 95 86 246q0 137 -69 234q-78 108 -209 108q-147 0 -271 -76q-20 -12 -38 -12q-59 0 -60 59l-8 578q-1 60 59 61l578 13
q61 1 61 -58q0 -56 -59 -57l-516 -12l4 -439q129 58 250 58q183 0 296 -140q105 -130 105 -317z" />
    <glyph glyph-name="six" unicode="6" horiz-adv-x="975" 
d="M922 360q0 -179 -113.5 -290t-294.5 -111q-215 0 -337 169q-107 150 -107 374q0 191 36 358q44 196 134 341q122 198 282 198q267 0 352 -504v-10q0 -60 -55 -60q-45 0 -64 58l-20 96q-72 305 -213 305q-134 0 -233 -230q-88 -204 -96 -438q123 152 309 152
q187 0 303.5 -110.5t116.5 -297.5zM799 358q0 142 -80 220q-77 75 -213 75q-127 0 -211 -79q-61 -57 -88 -140q5 -151 82 -251q85 -109 225 -109q130 0 207.5 77.5t77.5 206.5z" />
    <glyph glyph-name="seven" unicode="7" horiz-adv-x="778" 
d="M758 1288q0 -11 -2 -18l-375 -1237q-13 -43 -57 -43q-62 0 -62 61q0 3 4 17l352 1167l-559 6q-59 1 -59 57q0 59 61 58l637 -8q60 -1 60 -60z" />
    <glyph glyph-name="eight" unicode="8" horiz-adv-x="928" 
d="M866 369q0 -166 -118.5 -284t-284.5 -118t-284 117.5t-118 284.5q0 233 213 348q-83 43 -133.5 126t-50.5 177q0 153 108.5 262t262.5 109q153 0 261.5 -109t108.5 -262q0 -93 -48.5 -175.5t-133.5 -127.5q98 -47 157.5 -144t59.5 -204zM711 1020q0 109 -73 182.5
t-177 73.5t-177 -74t-73 -182q0 -109 72.5 -181.5t177.5 -72.5q104 0 177 72.5t73 181.5zM743 369q0 119 -82 201.5t-198 82.5t-197.5 -82.5t-81.5 -201.5q0 -120 81.5 -203.5t197.5 -83.5t198 83.5t82 203.5z" />
    <glyph glyph-name="nine" unicode="9" horiz-adv-x="938" 
d="M866 752q0 -756 -434 -756q-157 0 -264 114q-102 110 -102 261q0 67 59 67q41 0 56 -47l18 -82q63 -198 237 -198q307 0 307 608q-109 -160 -292 -160q-184 0 -293 117q-107 114 -107 299q0 172 107.5 283.5t281.5 111.5q233 0 343 -214q83 -162 83 -404zM707 954
q0 117 -66 203q-75 98 -203 98q-122 0 -193 -78t-71 -202q0 -136 71 -217q74 -84 206 -84q118 0 189 83q67 78 67 197z" />
    <glyph glyph-name="colon" unicode=":" horiz-adv-x="315" 
d="M233 580q0 -32 -22 -54t-53 -22q-32 0 -54 22t-22 54q0 31 22 53t54 22q31 0 53 -22t22 -53zM233 55q0 -31 -22 -53t-53 -22q-32 0 -54 22t-22 53q0 32 22 54t54 22q31 0 53 -22t22 -54z" />
    <glyph glyph-name="semicolon" unicode=";" horiz-adv-x="315" 
d="M236 580q0 -32 -22.5 -54t-53.5 -22q-32 0 -54 22t-22 54q0 31 22 53t54 22q31 0 53.5 -22t22.5 -53zM240 47q0 -55 -41 -101q-46 -52 -117 -52q23 12 47 43.5t25 56.5q-70 0 -70 74q0 31 22 53t54 22q33 0 56.5 -26t23.5 -70z" />
    <glyph glyph-name="less" unicode="&#x3c;" horiz-adv-x="1706" 
d="M1442 76l-1178 483v103l1178 483v-127l-1000 -408l1000 -405v-129z" />
    <glyph glyph-name="equal" unicode="=" horiz-adv-x="1706" 
d="M1452 743h-1198v117h1198v-117zM1452 360h-1198v117h1198v-117z" />
    <glyph glyph-name="greater" unicode="&#x3e;" horiz-adv-x="1706" 
d="M1442 559l-1178 -483v129l1000 405l-1000 408v127l1178 -483v-103z" />
    <glyph glyph-name="question" unicode="?" horiz-adv-x="897" 
d="M844 1051q0 -173 -103 -293l-192 -192q-103 -125 -103 -308q0 -59 -59 -59q-61 0 -61 59q0 213 102 346l190 188q103 106 103 255q0 114 -77.5 189t-190.5 75q-167 0 -248 -152q-14 -35 -28 -71q-19 -41 -54 -41q-62 0 -62 59q0 6 2 14q34 134 141.5 219.5t244.5 85.5
q167 0 281 -109.5t114 -264.5zM469 29q0 -32 -22 -54t-54 -22q-31 0 -53.5 22t-22.5 54q0 31 22.5 54t53.5 23t53.5 -23t22.5 -54z" />
    <glyph glyph-name="at" unicode="@" horiz-adv-x="2048" 
d="M1937 778q0 -167 -62.5 -307.5t-182.5 -237.5q-140 -112 -312 -112q-198 0 -198 155q0 3 2 11v12q-105 -178 -297 -178q-152 0 -233 85t-81 247q0 215 125 375q135 173 344 173q89 0 153 -40t97 -117l58 121h110l-141 -568q-4 -14 -8 -45q-4 -27 -4 -35q0 -43 27.5 -66.5
t82.5 -23.5q99 0 203 88q92 78 143 205q47 118 47 246q0 287 -220 447q-196 143 -494 143q-169 0 -312 -51.5t-260 -153.5q-282 -247 -282 -637q0 -338 247 -534q212 -168 535 -168q353 0 631 188l45 -66q-149 -110 -313 -165.5t-347 -55.5q-384 0 -624 185
q-303 233 -303 624q0 333 200 578q143 174 349 266t454 92q167 0 310 -42.5t249 -125.5q130 -100 195 -229q67 -133 67 -283zM1262 715q-36 190 -207 190q-164 0 -260 -154q-82 -131 -82 -305q0 -229 196 -229q102 0 183.5 70.5t109.5 185.5z" />
    <glyph glyph-name="A" unicode="A" horiz-adv-x="989" 
d="M969 -8q0 -62 -62 -62q-44 0 -57 45l-123 428l-481 -14l-127 -452q-12 -43 -58 -43q-61 0 -61 59q0 9 2 16l424 1506q13 45 57 45q47 0 60 -43l424 -1469q2 -7 2 -16zM694 516l-209 721l-206 -733z" />
    <glyph glyph-name="B" unicode="B" horiz-adv-x="967" 
d="M926 438q0 -261 -267 -392q-207 -101 -501 -101q-76 0 -76 61l8 1417q0 62 88 62q257 0 439 -75q249 -102 249 -320q0 -121 -102 -208q-84 -73 -221 -110q166 -21 269 -102q114 -90 114 -232zM745 1090q0 151 -197 225q-147 55 -337 53l-4 -543h53q177 0 305 49
q180 68 180 216zM803 438q0 156 -198 225q-138 48 -347 48h-51l-4 -650q233 4 392 81q208 99 208 296z" />
    <glyph glyph-name="C" unicode="C" horiz-adv-x="905" 
d="M885 219q0 -36 -58 -108q-136 -172 -342 -172q-221 0 -337 141q-107 131 -107 358q0 370 113 676q130 354 315 354q212 0 303 -383q49 -207 49 -350q0 -61 -57 -61q-55 0 -64 57q-3 47 -12 141q-20 160 -59 281q-66 201 -160 201q-98 0 -201 -277q-106 -287 -106 -639
q0 -385 323 -385q149 0 252 135q18 29 37 58q23 33 51 33q60 0 60 -60z" />
    <glyph glyph-name="D" unicode="D" horiz-adv-x="926" 
d="M885 803q0 -300 -149 -516q-116 -169 -306 -266q-148 -76 -256 -76q-60 0 -61 59l-31 1385q-1 63 104 63q135 0 226 -16q233 -42 358 -220q115 -165 115 -413zM762 803q0 203 -88 338q-97 149 -285 182q-76 13 -184 14l28 -1265q264 65 401 266q128 187 128 465z" />
    <glyph glyph-name="E" unicode="E" horiz-adv-x="899" 
d="M899 29q0 -57 -61 -58l-674 -6q-60 0 -62 60l-30 1355q-2 61 57 64l600 31q64 3 64 -58q0 -54 -58 -57l-540 -27l10 -512h459q59 0 59 -55q0 -57 -59 -57h-455l12 -631l617 8q61 1 61 -57z" />
    <glyph glyph-name="F" unicode="F" horiz-adv-x="868" 
d="M868 1419q0 -56 -59 -57l-616 -10l6 -623l454 14q62 2 62 -55q0 -58 -60 -59l-456 -13l4 -571q0 -61 -60 -61q-61 0 -61 61l-10 1358q-1 58 59 59l676 13q61 1 61 -56z" />
    <glyph glyph-name="G" unicode="G" horiz-adv-x="967" 
d="M936 498q0 -166 -93 -325q-125 -214 -349 -214q-222 0 -346 183q-107 160 -107 393q0 377 123 651q136 303 336 303q224 0 323 -363q51 -186 51 -329q0 -64 -57 -64q-56 0 -63 58q-4 47 -15 141q-67 442 -239 442q-120 0 -226 -233q-110 -244 -110 -606q0 -182 73 -308
q89 -153 257 -153q137 0 225 118q77 102 92 252h-360q-62 0 -62 58q0 57 62 57h423q62 0 62 -61z" />
    <glyph glyph-name="H" unicode="H" horiz-adv-x="973" 
d="M891 1376l-21 -1356q-1 -61 -61 -61t-59 61l8 533l-549 8l4 -530q0 -60 -59 -60q-61 0 -62 60l-10 1358q-1 61 59 61q61 0 62 -61l6 -713l551 -10l10 712q1 62 61 62q25 0 42.5 -19.5t17.5 -44.5z" />
    <glyph glyph-name="I" unicode="I" horiz-adv-x="686" 
d="M666 41q0 -58 -62 -57l-524 6q-60 0 -60 59q0 56 62 55l192 -2l17 1196l-211 2q-60 1 -60 58q0 58 62 57l524 -6q60 -1 60 -59q0 -56 -62 -56l-192 2l-17 -1196l211 -2q60 0 60 -57z" />
    <glyph glyph-name="J" unicode="J" horiz-adv-x="909" 
d="M838 487q0 -231 -79 -377q-100 -186 -310 -186q-217 0 -329 153q-100 135 -100 359q0 66 6 89q14 53 60 53q59 0 59 -62q0 -13 -2 -39t-2 -39q0 -399 308 -399q266 0 266 448q0 189 -21 458q-32 418 -32 433q-4 66 59 66q58 0 61 -55q17 -229 34 -457q22 -299 22 -445z
" />
    <glyph glyph-name="K" unicode="K" horiz-adv-x="967" 
d="M956 10q0 -59 -53 -59q-32 0 -49 24l-475 676l-158 -217l15 -471q0 -25 -16.5 -44t-41.5 -19q-62 0 -63 59l-43 1425q-1 25 16.5 44.5t42.5 19.5q60 0 62 -59l22 -766l567 776q18 24 49 24q52 0 52 -59q0 -18 -13 -35l-419 -577l495 -707q10 -15 10 -35z" />
    <glyph glyph-name="L" unicode="L" horiz-adv-x="829" 
d="M819 8q0 -58 -61 -57l-592 6q-58 1 -60 59l-45 1389q0 24 17.5 42.5t42.5 18.5q59 0 61 -57l45 -1337l533 -6q59 -1 59 -58z" />
    <glyph glyph-name="M" unicode="M" horiz-adv-x="1266" 
d="M1184 578q0 -216 -10 -443q-1 -66 -9 -164q-12 -57 -61 -57q-60 0 -60 66q0 88 8.5 264.5t8.5 265.5q0 790 -137 790q-110 0 -166 -336q-41 -250 -41 -565q0 -140 -4 -280q1 -43 -4 -115q-12 -59 -64 -59q-57 0 -57 65q0 -19 4 133t4 254q0 908 -139 908q-98 0 -165 -328
q-56 -281 -56 -576q0 -69 2 -208.5t2 -208.5q0 -62 -62 -62q-59 0 -59 62q0 390 -10 729q-10 305 -35 561q-13 123 -13 121q0 61 62 61q52 0 59 -55q17 -125 31 -369q19 143 73 249q73 144 183 144q105 0 157 -141q25 -65 46 -219q89 356 262 356q56 0 106 -49
q144 -139 144 -794z" />
    <glyph glyph-name="N" unicode="N" horiz-adv-x="961" 
d="M879 1362l-25 -1358q-1 -59 -61 -59q-37 0 -54 35l-534 1132l6 -1098q0 -59 -61 -59q-62 0 -62 59l-6 1358q0 62 61 62q37 0 54 -35l540 -1145l21 1110q1 59 61 59q61 0 60 -61z" />
    <glyph glyph-name="O" unicode="O" horiz-adv-x="993" 
d="M952 627q0 -266 -90 -446q-117 -232 -356 -232q-234 0 -360 213q-105 177 -105 428q0 265 94 513q123 324 342 324q239 0 372 -297q103 -232 103 -503zM829 625q0 215 -74 417q-99 271 -278 271q-154 0 -244 -286q-69 -218 -69 -433q0 -200 71 -345q92 -186 271 -186
q180 0 263 204q60 146 60 358z" />
    <glyph glyph-name="P" unicode="P" horiz-adv-x="903" 
d="M893 1018q0 -451 -602 -451h-84l-4 -540q-1 -62 -62 -62q-59 0 -59 62l6 1366q0 59 66 59h145q594 0 594 -434zM770 1018q0 319 -463 319h-96l-4 -655h98q465 0 465 336z" />
    <glyph glyph-name="Q" unicode="Q" horiz-adv-x="967" 
d="M926 633q0 -385 -178 -555q124 -202 124 -219q0 -62 -61 -62q-34 0 -51 29l-113 184q-73 -33 -155 -33q-228 0 -350 207q-101 171 -101 414q0 258 92 498q120 313 332 313q232 0 361 -289q100 -224 100 -487zM803 633q0 218 -71 409q-94 252 -267 252q-138 0 -228 -265
q-73 -216 -73 -427q0 -193 68 -332q88 -178 260 -178q47 0 92 19q-32 50 -63 100q-48 76 -48 96q0 62 59 62q34 0 52 -29l98 -160q121 138 121 453z" />
    <glyph glyph-name="R" unicode="R" horiz-adv-x="901" 
d="M870 993q0 -321 -333 -411l297 -537q8 -15 8 -29q0 -61 -56 -61q-34 0 -53 33l-319 569q-45 -4 -97 -4q3 0 -110 2l-4 -520q-1 -60 -62 -60q-59 0 -59 60l6 1321q0 59 64 59h147q571 0 571 -422zM748 993q0 186 -140 257q-100 50 -307 50h-92l-2 -630q113 -2 98 -2
q443 0 443 325z" />
    <glyph glyph-name="S" unicode="S" horiz-adv-x="942" 
d="M872 381q0 -167 -123 -280q-119 -109 -288 -109q-145 0 -259 90t-149 231q-2 9 -2 15q0 59 62 59q36 0 57 -49q8 -24 29 -70q86 -162 262 -162q120 0 202 75q87 78 87 200q0 129 -89 199q-52 41 -206 96q-187 67 -264 136q-109 98 -109 269q0 168 110 269q106 98 275 98
q215 0 336 -207q43 -74 43 -104q0 -60 -60 -60q-35 0 -55 37q-14 33 -29 66q-87 153 -235 153q-118 0 -188 -64q-74 -68 -74 -188q0 -127 87 -196q51 -40 204 -94q188 -68 266 -138q110 -99 110 -272z" />
    <glyph glyph-name="T" unicode="T" horiz-adv-x="948" 
d="M938 1356q0 -57 -59 -58l-351 -6l15 -1257q0 -62 -60 -62t-61 60l-16 1255l-334 -6q-62 -1 -62 57q0 59 60 60l807 14q61 1 61 -57z" />
    <glyph glyph-name="U" unicode="U" horiz-adv-x="1004" 
d="M922 766q0 -793 -408 -793q-432 0 -432 885q0 373 35 506q14 53 59 53q62 0 62 -61q0 7 -2 -8q-31 -225 -31 -486q0 -774 309 -774q285 0 285 676q0 294 -51 600v10q0 60 59 60q48 0 61 -50q20 -70 38 -310q16 -211 16 -308z" />
    <glyph glyph-name="V" unicode="V" horiz-adv-x="791" 
d="M780 1438q0 -6 -2 -15l-338 -1405q-11 -45 -59 -45q-47 0 -57 47l-304 1342q-2 9 -2 12q0 62 62 62q49 0 59 -47l244 -1108l279 1169q11 47 59 47q59 0 59 -59z" />
    <glyph glyph-name="W" unicode="W" horiz-adv-x="1245" 
d="M1163 1239q0 -228 -10 -418q-45 -837 -276 -837q-197 0 -279 598q-41 -243 -76 -351q-80 -247 -209 -247q-158 0 -209 367q-22 160 -22 480q0 228 14 478q2 35 4 73q19 58 62 58q59 0 59 -62q0 -91 -9 -273t-9 -274q0 -211 21 -425q32 -308 91 -308t122 255
q37 153 61 315q25 172 43 417q2 84 10 193q13 59 63 59q60 0 60 -61q0 -315 33 -610q18 -169 50 -314q54 -254 117 -254q90 0 136 472q32 326 32 657q0 33 -1 99.5t-1 98.5q0 62 60 62q50 0 61 -60q2 -10 2 -188z" />
    <glyph glyph-name="X" unicode="X" horiz-adv-x="858" 
d="M848 39q0 -59 -55 -59q-39 0 -56 32l-309 598l-270 -596q-17 -37 -56 -37q-55 0 -55 62q0 15 4 24l305 678l-340 660q-6 12 -6 26q0 62 58 62q36 0 53 -33l299 -579l262 577q16 35 55 35q58 0 58 -59q0 -14 -7 -27l-296 -658l350 -677q6 -12 6 -29z" />
    <glyph glyph-name="Y" unicode="Y" horiz-adv-x="834" 
d="M823 1403q0 -13 -4 -23l-327 -809v-526q0 -61 -62 -61q-59 0 -59 61v524l-365 824q-6 14 -6 24q0 62 57 62q39 0 56 -37l317 -713l283 696q15 39 55 39q55 0 55 -61z" />
    <glyph glyph-name="Z" unicode="Z" horiz-adv-x="856" 
d="M815 66q0 -58 -61 -58h-650q-61 0 -61 62q0 11 6 24l580 1219l-529 10q-59 1 -59 59q0 57 61 56l615 -11q59 -1 59 -61q0 -14 -6 -27l-580 -1216h564q61 0 61 -57z" />
    <glyph glyph-name="bracketleft" unicode="[" horiz-adv-x="653" 
d="M698 -74q0 -58 -61 -57l-434 8q-59 1 -60 60l-20 1568q-1 56 57 60l385 22q27 2 46.5 -15t19.5 -42q0 -54 -58 -57l-327 -19l16 -1466l377 -4q59 -1 59 -58z" />
    <glyph glyph-name="backslash" unicode="\" horiz-adv-x="618" 
d="M557 4q0 -59 -61 -59q-46 0 -58 43l-375 1323q-2 7 -2 16q0 59 62 59q45 0 57 -43l375 -1323q2 -7 2 -16z" />
    <glyph glyph-name="bracketright" unicode="]" horiz-adv-x="653" 
d="M530 -47q1 -58 -57 -62l-385 -22q-26 -2 -45.5 15t-19.5 42q0 55 57 58l330 16l-19 1466l-377 7q-59 0 -59 57q0 58 61 57l435 -6q60 -1 61 -61z" />
    <glyph glyph-name="asciicircum" unicode="^" horiz-adv-x="2048" 
d="M1624 901h-158l-442 438l-442 -438h-160l520 557h162z" />
    <glyph glyph-name="underscore" unicode="_" 
d="M1024 -483h-1024v118h1024v-118z" />
    <glyph glyph-name="grave" unicode="`" 
d="M647 1124q0 -59 -59 -59q-28 0 -45 18l-150 156q-16 17 -16 41q0 61 61 61q26 0 43 -18l150 -156q16 -17 16 -43z" />
    <glyph glyph-name="a" unicode="a" horiz-adv-x="805" 
d="M727 -33q0 -59 -57 -59q-46 0 -57 44q-7 25 -7 124q-126 -56 -241 -56q-127 0 -209 50q-101 60 -101 178q0 146 167 242q143 81 302 81q53 0 68 -2q-10 244 -158 244q-118 0 -258 -135q-23 -24 -45 -48q-31 -30 -55 -30q-62 0 -62 62q0 22 19 43q77 86 181 150
q123 75 220 75q182 0 246 -178q34 -96 41 -326q6 -195 6 -459zM604 203q-2 125 -6 252q-27 4 -76 4q-105 0 -214 -55q-130 -64 -130 -156q0 -115 187 -115q150 0 239 70z" />
    <glyph glyph-name="b" unicode="b" horiz-adv-x="862" 
d="M821 354q0 -181 -79 -288q-89 -119 -265 -119q-134 0 -274 114l-4 -176q-2 -59 -62 -59q-24 0 -42 19.5t-17 43.5l35 1399q1 60 61 60q25 0 42.5 -19.5t16.5 -44.5l-12 -483q127 78 213 78q190 0 297 -175q90 -148 90 -350zM700 354q0 150 -58 265q-73 145 -208 145
q-101 0 -217 -100l-10 -449q118 -154 270 -154q223 0 223 293z" />
    <glyph glyph-name="c" unicode="c" horiz-adv-x="799" 
d="M788 143q0 -31 -55 -80q-132 -116 -278 -116q-173 0 -286 78q-128 89 -128 256q0 120 31 243q38 155 116 269q102 151 232 151q186 0 262 -248q37 -120 37 -221q0 -61 -57 -61q-53 0 -64 63q-2 27 -8 80q-40 272 -170 272q-86 0 -170 -163q-88 -172 -88 -385
q0 -114 94 -171q78 -49 199 -49q95 0 196 89q17 17 35.5 36t40.5 19q61 0 61 -62z" />
    <glyph glyph-name="d" unicode="d" horiz-adv-x="901" 
d="M829 -131q2 -25 -15.5 -44.5t-41.5 -19.5q-61 0 -63 58l-11 209q-153 -105 -292 -105q-172 0 -271 115q-94 110 -94 285q0 235 109 404t256 169q130 0 260 -113l-25 553q-1 25 16 44.5t41 19.5q61 0 64 -58zM692 209l-18 438q-129 178 -268 178q-107 0 -180 -158
q-64 -140 -64 -300q0 -127 59 -202q64 -83 185 -83q153 0 286 127z" />
    <glyph glyph-name="e" unicode="e" horiz-adv-x="797" 
d="M807 70q0 -40 -68 -82q-145 -92 -333 -92q-180 0 -278 153q-83 131 -83 324q0 247 104 395q95 135 230 135q171 0 262 -155q76 -130 76 -318q0 -63 -55 -68l-494 -40q10 -128 60 -209q64 -103 178 -103q157 0 301 101q23 16 38 16q62 0 62 -57zM596 473q-41 315 -221 315
q-95 0 -155 -129q-50 -107 -50 -223z" />
    <glyph glyph-name="f" unicode="f" horiz-adv-x="664" 
d="M762 1257q0 -57 -62 -57q-24 0 -53 37q-64 81 -88 103q-53 46 -117 46q-79 0 -118 -104q-29 -76 -29 -172q0 -60 12 -365l244 13q25 1 45 -14.5t20 -38.5q0 -57 -57 -60l-246 -12l27 -658q1 -24 -15.5 -43.5t-41.5 -19.5q-61 0 -64 57l-29 656l-145 -7q-63 -2 -63 54
t57 59l147 8q-12 305 -12 371q0 152 56 258q70 133 208 133q163 0 281 -160q43 -58 43 -84z" />
    <glyph glyph-name="g" unicode="g" horiz-adv-x="870" 
d="M803 -2q0 -237 -40 -319q-69 -144 -302 -144q-102 0 -212 40q-120 43 -183 112q-19 20 -19 45q0 59 59 59q22 0 48 -19q21 -17 43 -34q129 -88 268 -88q159 0 199 103q18 49 18 249q-141 -82 -270 -82q-164 0 -267.5 111t-103.5 276q0 197 98 373q116 209 297 209
q89 0 185 -51q-9 70 -9 94q0 59 60 59q55 0 61 -53q70 -589 70 -940zM680 129q-10 264 -41 571q-102 74 -203 74q-125 0 -207 -175q-67 -145 -67 -292q0 -115 67 -192q70 -80 183 -80q125 0 268 94z" />
    <glyph glyph-name="h" unicode="h" horiz-adv-x="901" 
d="M823 150q0 -108 -4 -129q-11 -54 -61 -54q-58 0 -58 64q0 19 1 58t1 58q0 244 -23 424q-37 289 -124 289q-101 0 -210 -155q-81 -115 -126 -242q0 -153 6 -494q1 -61 -59 -61t-62 59l-28 1542q-1 62 59 62q61 0 62 -60l14 -829q164 293 338 293q274 0 274 -825z" />
    <glyph glyph-name="i" unicode="i" horiz-adv-x="315" 
d="M205 1178q0 -32 -22.5 -54t-53.5 -22t-53.5 22t-22.5 54q0 31 22.5 53t53.5 22t53.5 -22t22.5 -53zM238 45q1 -24 -16 -43.5t-42 -19.5q-61 0 -63 57l-39 817q-1 25 16 44.5t41 19.5q61 0 64 -58z" />
    <glyph glyph-name="j" unicode="j" horiz-adv-x="328" 
d="M178 1161q0 -31 -22 -53.5t-54 -22.5q-31 0 -53 22.5t-22 53.5q0 32 22 54t53 22q32 0 54 -22t22 -54zM250 63q0 -247 -35 -331q-70 -168 -311 -168q-102 0 -213 40q-121 43 -185 111q-18 20 -18 43q0 62 61 62q21 0 45 -19q20 -16 39 -32q121 -84 273 -84q138 0 187 77
q35 55 35 189q0 17 -1 53v55q0 158 -20 405q-27 332 -31 404q-2 25 17 42.5t44 17.5q54 0 60 -54q53 -493 53 -811z" />
    <glyph glyph-name="k" unicode="k" horiz-adv-x="848" 
d="M864 -2q0 -57 -57 -57q-29 0 -45 20l-410 531l-135 -170l10 -353q1 -24 -16.5 -42.5t-42.5 -18.5q-60 0 -62 59l-45 1542q0 25 17.5 43.5t42.5 18.5q60 0 61 -60l29 -1009l489 606q17 20 43 20q56 0 56 -59q0 -22 -13 -37l-358 -446l424 -549q12 -16 12 -39z" />
    <glyph glyph-name="l" unicode="l" horiz-adv-x="326" 
d="M248 -27q1 -24 -17 -43.5t-43 -19.5q-61 0 -63 57l-68 1559q-1 24 16 43.5t42 19.5q61 0 63 -57z" />
    <glyph glyph-name="m" unicode="m" horiz-adv-x="1403" 
d="M1325 215q0 -140 -6 -178q-9 -57 -64 -57q-57 0 -57 65q0 27 2 81t2 81q0 674 -188 674q-73 0 -163 -151q-55 -93 -99 -208q12 -124 12 -289q0 -184 -8 -233q-9 -55 -62 -55q-59 0 -59 65q0 36 3 107t3 106q0 635 -154 635q-59 0 -153 -141q-80 -120 -113 -217
q8 -164 8 -510q0 -60 -61 -60q-59 0 -59 60q0 292 -11 487q-6 126 -53 451v10q0 61 61 61q54 0 60 -51q15 -105 37 -260q154 285 284 285q174 0 232 -279q48 108 117 190q92 111 178 111q311 0 311 -780z" />
    <glyph glyph-name="n" unicode="n" horiz-adv-x="901" 
d="M823 229q0 -160 -6 -198q-9 -56 -63 -56q-58 0 -58 64q0 30 3 91t3 91q0 598 -131 598q-83 0 -206 -157q-82 -104 -148 -228q10 -252 10 -409q0 -62 -59 -62q-60 0 -62 60q-5 168 -16 464q-2 46 -15 208q-9 128 -9 204v4q0 62 61 62q55 0 59 -56q1 -4 17 -295
q94 141 153 203q113 119 215 119q252 0 252 -707z" />
    <glyph glyph-name="o" unicode="o" horiz-adv-x="750" 
d="M709 438q0 -185 -65 -306q-82 -155 -251 -155q-175 0 -269 129q-83 114 -83 295q0 186 69 342q90 201 252 201q167 0 265 -177q82 -148 82 -329zM588 438q0 126 -52 243q-65 148 -174 148q-100 0 -158 -172q-42 -129 -42 -256q0 -309 231 -309q110 0 160 126
q35 88 35 220z" />
    <glyph glyph-name="p" unicode="p" horiz-adv-x="879" 
d="M834 373q0 -182 -79 -287q-88 -119 -263 -119q-152 0 -281 119l-14 -535q-2 -59 -62 -59q-25 0 -42.5 18.5t-16.5 43.5l35 1398q1 60 61 60q59 0 59 -62q0 -24 -1 -65q-2 -53 -3 -66q127 80 222 80q189 0 295 -176q90 -148 90 -350zM713 373q0 150 -57 266
q-72 145 -207 145q-108 0 -224 -106l-10 -434q130 -162 277 -162q221 0 221 291z" />
    <glyph glyph-name="q" unicode="q" horiz-adv-x="903" 
d="M844 -444q1 -25 -16 -44.5t-42 -19.5q-61 0 -63 57l-25 564q-142 -105 -292 -105q-172 0 -271 115q-94 110 -94 285q0 247 119 418q110 157 246 157q133 0 258 -115l-9 199q-1 25 16 44t42 19q61 0 63 -59zM692 248l-20 444q-128 176 -266 176q-109 0 -182 -164
q-62 -141 -62 -296q0 -127 59 -203q64 -82 185 -82q154 0 286 125z" />
    <glyph glyph-name="r" unicode="r" horiz-adv-x="727" 
d="M748 844q0 -56 -60 -56q-14 0 -44.5 3.5t-45.5 3.5q-282 0 -383 -287l25 -440q1 -25 -16 -45.5t-42 -20.5q-62 0 -65 57l-51 920q-2 24 15.5 44.5t41.5 20.5q61 0 63 -57l15 -282q145 204 397 204q70 0 94 -5q56 -14 56 -60z" />
    <glyph glyph-name="s" unicode="s" horiz-adv-x="842" 
d="M791 254q0 -140 -113 -210q-93 -58 -242 -58q-139 0 -284 67q-74 34 -74 76q0 53 61 53q14 0 31 -8q156 -74 266 -74q234 0 234 150q0 92 -167 137l-310 80q-166 67 -166 213q0 135 107 209q93 63 235 63q205 0 348 -102q59 -43 59 -78q0 -53 -61 -53q-20 0 -45 20
q-122 99 -301 99q-89 0 -147 -32q-75 -40 -75 -122q0 -87 167 -130q307 -80 310 -81q167 -69 167 -219z" />
    <glyph glyph-name="t" unicode="t" horiz-adv-x="487" 
d="M498 1034q0 -58 -58 -61l-170 -8l58 -940q0 -60 -64 -60q-54 0 -57 58l-57 933l-188 -10q-24 -1 -43 15t-19 40q0 57 56 60l185 10q-16 268 -16 279q0 57 63 57q54 0 58 -55l16 -273l172 11q25 1 44.5 -15.5t19.5 -40.5z" />
    <glyph glyph-name="u" unicode="u" horiz-adv-x="862" 
d="M793 582q0 -613 -355 -613q-223 0 -319 257q-66 175 -66 446q0 136 8 176q11 53 60 53q61 0 61 -59v-8q0 -27 -4 -79.5t-4 -78.5q0 -216 41 -362q65 -230 223 -230q234 0 234 500q0 129 -19 258v10q0 59 62 59q45 0 59 -51q19 -65 19 -278z" />
    <glyph glyph-name="v" unicode="v" horiz-adv-x="834" 
d="M834 991q0 -12 -5 -22l-395 -998q-15 -39 -57 -39q-43 0 -58 41l-305 863q-4 11 -4 20q0 62 62 62q43 0 57 -41l252 -723l336 860q14 37 55 37q62 0 62 -60z" />
    <glyph glyph-name="w" unicode="w" horiz-adv-x="1214" 
d="M1212 901q0 -13 -297 -852q-14 -41 -57 -41q-42 0 -57 41l-207 557l-238 -561q-15 -37 -57 -37q-45 0 -57 45l-222 803q-2 7 -2 16q0 60 62 60q45 0 57 -45l176 -641l228 534q15 37 57 37q41 0 55 -39l203 -538l240 682q13 39 57 39q59 0 59 -60z" />
    <glyph glyph-name="x" unicode="x" horiz-adv-x="733" 
d="M723 39q0 -62 -57 -62q-30 0 -50 27l-254 354l-221 -346q-18 -28 -51 -28q-55 0 -55 61q0 18 8 31l244 387l-267 373q-10 14 -10 34q0 62 58 62q30 0 49 -27l239 -336l219 344q19 29 52 29q57 0 57 -61q0 -17 -10 -33l-242 -381l281 -393q10 -15 10 -35z" />
    <glyph glyph-name="y" unicode="y" horiz-adv-x="844" 
d="M817 854q0 -43 -186 -563q-202 -562 -291 -643q-52 -47 -139 -47q-58 0 -138.5 25.5t-125.5 60.5q-29 21 -29 51q0 55 61 55q8 0 91.5 -39t140.5 -39q37 0 61 19q30 22 125 256l-379 792q-6 13 -6 25q0 61 57 61q39 0 56 -34l331 -697q96 252 177 492q25 81 79 243
q16 43 60 43q55 0 55 -61z" />
    <glyph glyph-name="z" unicode="z" horiz-adv-x="784" 
d="M754 57q0 -57 -60 -57h-600q-59 0 -59 61q0 19 12 35l504 682l-461 4q-59 1 -59 58q0 58 61 57l565 -8q60 -1 60 -62q0 -18 -12 -34l-502 -678h491q60 0 60 -58z" />
    <glyph glyph-name="braceleft" unicode="{" 
d="M858 -414h-35q-184 0 -262 52q-68 44 -89 141q-11 53 -11 172v244q0 143 -50 205q-55 69 -194 69h-22q-31 -2 -23 -2v127h23q30 -2 22 -2q140 0 195 70q49 61 49 206v244q0 121 11 173q21 96 89 140q79 52 262 52h35v-127q8 0 -22 2h-23q-129 0 -172 -59
q-35 -48 -35 -185v-242q0 -147 -31 -213q-43 -88 -167 -123q124 -33 167 -122q31 -66 31 -213v-242q0 -139 37 -186q44 -56 176 -56h39v-125z" />
    <glyph glyph-name="bar" unicode="|" 
d="M575 -483h-126v2048h126v-2048z" />
    <glyph glyph-name="braceright" unicode="}" 
d="M854 467q8 0 -23 2h-22q-141 0 -196 -69q-50 -62 -50 -207v-242q0 -121 -11 -173q-20 -98 -87 -143q-42 -27 -98 -38q-52 -11 -160 -11h-41v125q-8 0 22 -2h23q130 0 172 59q35 49 35 187v240q0 147 31 213q43 89 167 122q-124 35 -167 123q-31 66 -31 213v242
q0 150 -43.5 197t-169.5 47h-39v125h35q185 0 264 -52q66 -43 87 -141q11 -53 11 -172v-244q0 -145 50 -207q55 -69 196 -69q-8 0 22 2h23v-127z" />
    <glyph glyph-name="asciitilde" unicode="~" horiz-adv-x="1706" 
d="M1530 627q-104 -74 -197 -109t-190 -35q-84 0 -191 35q-26 9 -88 31q-199 72 -301 72q-157 0 -385 -160v133q209 145 387 145q105 0 291 -65q12 -5 43 -17q156 -57 246 -57q160 0 385 158v-131z" />
    <glyph glyph-name="nonbreakingspace" unicode="&#xa0;" horiz-adv-x="487" 
 />
    <glyph glyph-name="exclamdown" unicode="&#xa1;" horiz-adv-x="420" 
d="M94 16l58 1084q3 57 63 57q24 0 41.5 -19.5t15.5 -43.5l-57 -1084q-3 -57 -63 -57q-25 0 -42 19.5t-16 43.5zM145 1356q0 31 22.5 53.5t53.5 22.5q32 0 54 -22.5t22 -53.5q0 -32 -22 -54t-54 -22q-31 0 -53.5 22t-22.5 54z" />
    <glyph glyph-name="cent" unicode="&#xa2;" horiz-adv-x="844" 
d="M782 524q0 -42 -90 -107q-108 -77 -235 -77l4 -291q1 -61 -60 -61q-60 0 -61 59l-4 303q-123 24 -196 98q-79 79 -79 199q0 165 64 328q75 190 201 256l-2 254q-1 61 59 61q61 0 61 -61l2 -230q167 -14 236 -227q35 -107 35 -203q0 -61 -60 -61q-53 0 -61 57q-2 23 -6 68
q-34 232 -141 254l8 -688q101 0 219 106q25 23 45 23q61 0 61 -60zM334 469l-6 621q-68 -74 -109 -209q-37 -120 -37 -234q0 -138 152 -178z" />
    <glyph glyph-name="sterling" unicode="&#xa3;" 
d="M946 133q0 -56 -61 -55l-662 6q-59 1 -59 63q0 188 29 478q-75 0 -93 3q-55 11 -55 54q0 57 61 57h99q55 359 106 491q91 236 271 236q123 0 231 -132q90 -110 129 -249q4 -14 4 -18q0 -61 -61 -61q-39 0 -58 47q-120 299 -245 299q-176 0 -254 -613h336q61 0 61 -57
t-61 -57h-351q-18 -182 -26 -426l598 -6q61 -1 61 -60z" />
    <glyph glyph-name="currency" unicode="&#xa4;" horiz-adv-x="1051" 
d="M997 285q0 -30 -55 -101q-135 -172 -332 -172t-312 121q-110 116 -120 316l-104 2q-60 1 -60 59t62 55l102 -4q2 60 8 125l-112 2q-60 1 -60 60t62 57l125 -4q35 235 111 417q116 277 282 277q174 0 270 -278q72 -208 72 -431q0 -63 -57 -63q-60 0 -64 57
q-37 600 -221 600q-100 0 -187 -251q-57 -163 -83 -330l284 -4q60 -1 60 -62q0 -56 -62 -55l-299 6q-6 -63 -8 -125l229 -4q60 -1 60 -59q0 -57 -62 -56l-225 6q24 -319 309 -319q138 0 238 129q18 29 36 57q24 33 54 33q59 0 59 -61z" />
    <glyph glyph-name="yen" unicode="&#xa5;" horiz-adv-x="1042" 
d="M981 1419q0 -14 -6 -26l-383 -754l242 -4q59 -1 59 -57q0 -57 -62 -56l-272 4l-2 -145l277 -4q59 -1 59 -58q0 -56 -62 -55l-276 4l-2 -237q-1 -62 -61 -62t-60 62l2 239l-270 4q-62 1 -62 58q0 59 64 57l270 -6v145l-272 4q-60 1 -60 58q0 56 62 55l244 -4l-344 793
q-5 9 -5 24q0 60 58 60q40 0 55 -35l330 -758l366 723q17 33 54 33q57 0 57 -62z" />
    <glyph glyph-name="brokenbar" unicode="&#xa6;" 
d="M575 674h-126v758h126v-758zM575 -350h-126v758h126v-758z" />
    <glyph glyph-name="section" unicode="&#xa7;" 
d="M930 598q0 -171 -180 -274q92 -92 92 -220q0 -138 -109 -220q-98 -74 -239 -74q-164 0 -253 86.5t-89 246.5v41h157v-28q0 -203 191 -203q180 0 180 149q0 64 -78 131q-35 31 -133 93l-172 108q-207 131 -207 289q0 189 184 293q-90 76 -90 198q0 139 102 221
q94 76 236 76q149 0 237.5 -89t88.5 -234v-41h-154q-4 225 -184 225q-74 0 -120 -41t-46 -110q0 -95 150 -181l202 -116q234 -135 234 -326zM764 580q0 113 -158 208l-229 140q-131 -56 -131 -168q0 -108 145 -197l258 -157q115 77 115 174z" />
    <glyph glyph-name="dieresis" unicode="&#xa8;" 
d="M684 1204q0 -63 -68 -63q-63 0 -63 67q0 64 68 64q63 0 63 -68zM473 1204q0 -27 -21 -45t-49 -18q-63 0 -63 67q0 64 68 64q27 0 46 -20t19 -48z" />
    <glyph glyph-name="copyright" unicode="&#xa9;" horiz-adv-x="1706" 
d="M1587 725q0 -310 -211 -516q-106 -104 -244.5 -161.5t-279.5 -57.5q-298 0 -515.5 216.5t-217.5 518.5q0 142 57 279q121 288 395 401q134 55 281 55q309 0 524 -215q101 -101 156 -236t55 -284zM1501 725q0 269 -188 459q-91 91 -209 139q-121 49 -252 49
q-269 0 -453 -186q-192 -196 -192 -461q0 -263 190 -454t455 -191q130 0 248 49q255 107 354 348q47 115 47 248zM1204 561q-11 -135 -117 -214q-97 -73 -237 -73q-187 0 -291 133q-94 121 -94 314q0 206 108 331.5t287 125.5q130 0 222 -68q100 -74 112 -199h-129
q-32 164 -209 164q-133 0 -197 -115q-51 -92 -51 -237q0 -141 53 -232q64 -112 195 -112q86 0 145 48.5t74 133.5h129z" />
    <glyph glyph-name="ordfeminine" unicode="&#xaa;" horiz-adv-x="768" 
d="M702 614q0 -55 -57 -55q-44 0 -53 47q-5 24 -4 45q0 6 1 26q1 17 1 28q-110 -46 -213 -46q-113 0 -187 46q-88 54 -88 159q0 132 144 219q126 76 274 76q40 0 58 -2q0 78 -31 134q-37 69 -107 69q-67 0 -150 -60q-27 -20 -126 -110q-18 -16 -41 -16q-57 0 -57 55
q0 23 16 41q186 200 358 200q92 0 159 -63t83 -156q8 -48 14 -247q6 -210 6 -390zM588 823q-1 75 -4 224q-32 6 -66 6q-102 0 -197 -52q-106 -57 -106 -137q0 -98 164 -98q145 0 209 57z" />
    <glyph glyph-name="guillemotleft" unicode="&#xab;" horiz-adv-x="745" 
d="M684 164q0 -60 -59 -60q-34 0 -52 27l-245 383q-11 16 -11 33t11 33l245 383q18 26 52 26q59 0 59 -59q0 -20 -8 -33l-225 -350l225 -350q8 -13 8 -33zM428 164q0 -60 -61 -60q-35 0 -52 27l-243 383q-11 16 -11 33q0 16 11 33l243 383q17 26 52 26q61 0 61 -59
q0 -17 -10 -33l-223 -350l223 -350q10 -16 10 -33z" />
    <glyph glyph-name="logicalnot" unicode="&#xac;" horiz-adv-x="1706" 
d="M1452 356h-115v385h-1083v117h1198v-502z" />
    <glyph glyph-name="sfthyphen" unicode="&#xad;" horiz-adv-x="819" 
d="M758 477q0 -60 -62 -59l-575 8q-60 1 -60 61q0 61 62 60l575 -8q60 -1 60 -62z" />
    <glyph glyph-name="registered" unicode="&#xae;" horiz-adv-x="1706" 
d="M1587 725q0 -309 -213 -516q-225 -219 -522 -219q-158 0 -298 63q-268 123 -380 393q-55 134 -55 279q0 301 221 524q104 106 232.5 158.5t279.5 52.5q307 0 524 -217q211 -211 211 -518zM1501 721q0 130 -49 252q-75 184 -238 291.5t-362 107.5q-133 0 -246.5 -46.5
t-204.5 -137.5q-97 -98 -145.5 -214t-48.5 -249q0 -192 110.5 -357t286.5 -239q118 -49 246 -49q195 0 361 108t241 287q49 118 49 246zM1223 926q0 -89 -54 -148.5t-143 -75.5l188 -385h-157l-176 365h-179v-365h-141v840h311q351 0 351 -231zM1077 915q0 150 -231 150
h-144v-291h148q122 0 174.5 33.5t52.5 107.5z" />
    <glyph glyph-name="macron" unicode="&#xaf;" 
d="M779 1204q0 -61 -61 -61h-412q-61 0 -61 61q0 60 61 60h412q61 0 61 -60z" />
    <glyph glyph-name="macron" unicode="&#x2c9;" 
d="M779 1204q0 -61 -61 -61h-412q-61 0 -61 61q0 60 61 60h412q61 0 61 -60z" />
    <glyph glyph-name="degree" unicode="&#xb0;" horiz-adv-x="674" 
d="M621 1171q0 -125 -99 -212q-80 -70 -186 -70q-119 0 -200 82t-81 200q0 120 81.5 201.5t201.5 81.5q117 0 200 -83t83 -200zM539 1171q0 84 -58.5 142.5t-142.5 58.5q-83 0 -143 -59t-60 -142q0 -84 59 -143t144 -59q84 0 142.5 58.5t58.5 143.5z" />
    <glyph glyph-name="plusminus" unicode="&#xb1;" horiz-adv-x="1706" 
d="M1452 719h-539v-344h-118v344h-541v117h541v344h118v-344h539v-117zM1452 41h-1198v117h1198v-117z" />
    <glyph glyph-name="twosuperior" unicode="&#xb2;" horiz-adv-x="602" 
d="M539 594q0 -52 -56 -51l-348 2q-55 0 -55 55q0 113 89 216l164 162q89 94 89 181q0 53 -36 86t-89 33q-79 0 -117 -76l-20 -44q-14 -23 -41 -23q-57 0 -56 48v3q2 76 73.5 136t160.5 60q96 0 163 -62q70 -65 70 -161q0 -107 -76 -203q-18 -22 -151 -151
q-90 -86 -108 -156l288 -2q56 0 56 -53z" />
    <glyph glyph-name="threesuperior" unicode="&#xb3;" horiz-adv-x="602" 
d="M537 770q0 -99 -62 -172q-65 -78 -168 -78q-110 0 -177 65.5t-67 172.5q0 57 56 57q38 0 51 -49q22 -82 28 -92q29 -49 105 -49q59 0 94 46q31 41 31 101q0 146 -145 146q-54 0 -54 51q0 53 54 53q133 0 133 131q0 58 -30 96.5t-83 38.5q-73 0 -98 -49q-3 -4 -24 -90
q-12 -49 -52 -49q-55 0 -55 57q0 108 63 172t166 64q105 0 166 -74q55 -66 55 -166q0 -119 -94 -180q107 -61 107 -203z" />
    <glyph glyph-name="acute" unicode="&#xb4;" 
d="M647 1280q0 -24 -16 -41l-150 -156q-17 -18 -43 -18q-61 0 -61 59q0 26 16 43l150 156q17 18 45 18q59 0 59 -61z" />
    <glyph glyph-name="mu" unicode="&#xb5;" horiz-adv-x="1128" 
d="M1051 1069l-162 -754q-23 -105 -23 -135q0 -65 72 -65h18q6 0 17 2l-27 -125q-25 -6 -44.5 -8t-47.5 -2q-134 0 -145 147q-87 -147 -289 -147q-85 0 -152 35t-110 102l-113 -545h-156l316 1495h157l-126 -596q-7 -32 -11 -65q-4 -40 -4 -72q0 -227 217 -227
q123 0 207 102t129 307l121 551h156z" />
    <glyph glyph-name="mu" unicode="&#x3bc;" horiz-adv-x="1128" 
d="M1051 1069l-162 -754q-23 -105 -23 -135q0 -65 72 -65h18q6 0 17 2l-27 -125q-25 -6 -44.5 -8t-47.5 -2q-134 0 -145 147q-87 -147 -289 -147q-85 0 -152 35t-110 102l-113 -545h-156l316 1495h157l-126 -596q-7 -32 -11 -65q-4 -40 -4 -72q0 -227 217 -227
q123 0 207 102t129 307l121 551h156z" />
    <glyph glyph-name="paragraph" unicode="&#xb6;" 
d="M948 1401h-125v-1401h-94v1401h-182v-1401h-96v782q-164 8 -265 94q-110 94 -110 254q0 166 116 261q108 88 277 88h479v-78z" />
    <glyph glyph-name="periodcentered" unicode="&#xb7;" horiz-adv-x="616" 
d="M432 729q0 -51 -36.5 -88t-88.5 -37t-87.5 36t-35.5 89q0 54 35 88.5t88 34.5t89 -35.5t36 -87.5z" />
    <glyph glyph-name="periodcentered" unicode="&#x2219;" horiz-adv-x="616" 
d="M432 729q0 -51 -36.5 -88t-88.5 -37t-87.5 36t-35.5 89q0 54 35 88.5t88 34.5t89 -35.5t36 -87.5z" />
    <glyph glyph-name="cedilla" unicode="&#xb8;" 
d="M702 -238q0 -172 -206 -172q-124 0 -258 54q-39 15 -39 57q0 59 61 59q9 0 21 -4q125 -43 219 -43q82 0 82 49q0 45 -119 45q-62 0 -62 62q0 2 29 139q10 47 59 47q62 0 62 -59q0 -1 -14 -70q165 -24 165 -164z" />
    <glyph glyph-name="onesuperior" unicode="&#xb9;" horiz-adv-x="526" 
d="M461 598q0 -52 -53 -51l-289 2q-53 0 -53 53q0 51 53 51h86l2 606l-88 5q-53 2 -53 51q0 52 53 51l143 -2q53 -1 53 -53l-2 -660l95 -2q53 -1 53 -51z" />
    <glyph glyph-name="ordmasculine" unicode="&#xba;" horiz-adv-x="727" 
d="M662 993q0 -166 -59 -274q-74 -135 -224 -135q-156 0 -239 114q-74 102 -74 265q0 167 62 305q80 176 224 176q148 0 236 -157q74 -132 74 -294zM549 993q0 109 -44 211q-57 131 -153 131q-87 0 -137 -152q-37 -113 -37 -220q0 -271 201 -271q170 0 170 301z" />
    <glyph glyph-name="guillemotright" unicode="&#xbb;" horiz-adv-x="745" 
d="M684 547q0 -17 -10 -33l-244 -383q-17 -27 -51 -27q-62 0 -62 60q0 17 11 33l223 350l-223 350q-11 16 -11 33q0 59 62 59q34 0 51 -26l244 -383q10 -17 10 -33zM428 547q0 -17 -10 -33l-244 -383q-17 -27 -51 -27q-62 0 -62 60q0 17 11 33l223 350l-223 350
q-11 16 -11 33q0 59 62 59q34 0 51 -26l244 -383q10 -17 10 -33z" />
    <glyph glyph-name="onequarter" unicode="&#xbc;" horiz-adv-x="1243" 
d="M1180 248q0 -53 -58 -51l-63 2l-2 -142q-1 -53 -56 -53q-54 0 -53 53l2 146l-268 10q-53 2 -53 53q0 13 10 29l330 522q15 25 45 25q56 0 55 -53l-8 -484l65 -4q54 -3 54 -53zM995 1329q0 -13 -5 -25l-637 -1339q-16 -33 -52 -33q-55 0 -55 58q0 13 6 25l636 1339
q16 32 50 32q57 0 57 -57zM461 598q0 -52 -53 -51l-289 2q-53 0 -53 53q0 51 53 51h86l2 606l-88 5q-53 2 -53 51q0 52 53 51l143 -2q53 -1 53 -53l-2 -660l95 -2q53 -1 53 -51zM956 608l-184 -295l180 -6z" />
    <glyph glyph-name="onehalf" unicode="&#xbd;" horiz-adv-x="1284" 
d="M1204 -9q0 -52 -55 -51l-348 2q-56 0 -56 55q0 113 89 216q82 81 165 162q88 93 88 181q0 53 -36 86t-88 33q-79 0 -117 -76q-10 -22 -20 -45q-14 -23 -42 -23q-56 0 -55 49v3q2 76 73.5 136t160.5 60q95 0 163 -62q70 -65 70 -161q0 -107 -76 -203q-18 -23 -152 -151
q-89 -86 -108 -156l289 -2q55 0 55 -53zM995 1329q0 -13 -5 -25l-637 -1339q-16 -33 -52 -33q-55 0 -55 58q0 13 6 25l636 1339q16 32 50 32q57 0 57 -57zM461 598q0 -52 -53 -51l-289 2q-53 0 -53 53q0 51 53 51h86l2 606l-88 5q-53 2 -53 51q0 52 53 51l143 -2
q53 -1 53 -53l-2 -660l95 -2q53 -1 53 -51z" />
    <glyph glyph-name="threequarters" unicode="&#xbe;" horiz-adv-x="1280" 
d="M1231 248q0 -53 -57 -51l-64 2l-2 -142q-1 -53 -55 -53t-54 53l2 146l-268 10q-53 2 -53 53q0 13 10 29l330 522q15 25 45 25q56 0 55 -53l-8 -484l66 -4q53 -3 53 -53zM1049 1329q0 -13 -6 -25l-637 -1339q-16 -33 -52 -33q-55 0 -55 56q0 13 6 25l637 1341q14 30 51 30
q56 0 56 -55zM553 770q0 -99 -61 -172q-66 -78 -168 -78q-111 0 -177.5 65.5t-66.5 172.5q0 57 55 57q38 0 51 -49q22 -82 28 -92q29 -49 105 -49q59 0 94 46q31 41 31 101q0 146 -145 146q-53 0 -53 51q0 53 53 53q133 0 133 131q0 58 -28 95q-31 40 -85 40q-72 0 -98 -49
q-2 -4 -24 -90q-12 -49 -52 -49q-55 0 -55 57q0 108 63.5 172t165.5 64q106 0 166 -74q56 -66 56 -166q0 -119 -95 -180q107 -61 107 -203zM1008 608l-185 -295l181 -6z" />
    <glyph glyph-name="questiondown" unicode="&#xbf;" horiz-adv-x="897" 
d="M61 328q0 172 103 293q96 95 192 191q103 125 103 308q0 60 59 60q62 0 62 -60q0 -213 -103 -346q-95 -94 -190 -187q-103 -107 -103 -255q0 -114 77.5 -189t191.5 -75q166 0 247 151q14 36 28 71q19 42 54 42q62 0 62 -60q0 -6 -2 -14q-33 -133 -140.5 -219t-244.5 -86
q-168 0 -282 110t-114 265zM436 1350q0 31 22.5 53t53.5 22t53.5 -22t22.5 -53q0 -32 -22.5 -55t-53.5 -23t-53.5 23t-22.5 55z" />
    <glyph glyph-name="Agrave" unicode="&#xc0;" horiz-adv-x="989" 
d="M969 -8q0 -62 -62 -62q-44 0 -57 45l-123 428l-481 -14l-127 -452q-12 -43 -58 -43q-61 0 -61 59q0 9 2 16l424 1506q13 45 57 45q47 0 60 -43l424 -1469q2 -7 2 -16zM694 516l-209 721l-206 -733zM546 1677q0 -59 -59 -59q-28 0 -45 18l-150 156q-16 17 -16 41
q0 61 61 61q26 0 43 -18l150 -156q16 -17 16 -43z" />
    <glyph glyph-name="Aacute" unicode="&#xc1;" horiz-adv-x="989" 
d="M969 -8q0 -62 -62 -62q-44 0 -57 45l-123 428l-481 -14l-127 -452q-12 -43 -58 -43q-61 0 -61 59q0 9 2 16l424 1506q13 45 57 45q47 0 60 -43l424 -1469q2 -7 2 -16zM694 516l-209 721l-206 -733zM628 1812q0 -24 -16 -41l-150 -156q-17 -18 -43 -18q-61 0 -61 59
q0 26 16 43l150 156q17 18 45 18q59 0 59 -61z" />
    <glyph glyph-name="Acircumflex" unicode="&#xc2;" horiz-adv-x="989" 
d="M969 -8q0 -62 -62 -62q-44 0 -57 45l-123 428l-481 -14l-127 -452q-12 -43 -58 -43q-61 0 -61 59q0 9 2 16l424 1506q13 45 57 45q47 0 60 -43l424 -1469q2 -7 2 -16zM694 516l-209 721l-206 -733zM741 1618q0 -61 -60 -61q-24 0 -43 18l-145 146l-143 -146
q-19 -18 -43 -18q-62 0 -62 61q0 25 19 43l186 187q18 18 43 18q24 0 43 -18l188 -187q17 -16 17 -43z" />
    <glyph glyph-name="Atilde" unicode="&#xc3;" horiz-adv-x="989" 
d="M969 -8q0 -62 -62 -62q-44 0 -57 45l-123 428l-481 -14l-127 -452q-12 -43 -58 -43q-61 0 -61 59q0 9 2 16l424 1506q13 45 57 45q47 0 60 -43l424 -1469q2 -7 2 -16zM694 516l-209 721l-206 -733zM777 1708q0 -14 -4 -25q-43 -108 -170 -108q-52 0 -123 39t-95 39
q-43 0 -59 -35v-2q-16 -35 -55 -35q-25 0 -43.5 18.5t-18.5 42.5q0 10 6 25q45 107 173 107q51 0 122 -39t95 -39q40 0 55 35v2q15 34 55 34q62 0 62 -59z" />
    <glyph glyph-name="Adieresis" unicode="&#xc4;" horiz-adv-x="989" 
d="M969 -8q0 -62 -62 -62q-44 0 -57 45l-123 428l-481 -14l-127 -452q-12 -43 -58 -43q-61 0 -61 59q0 9 2 16l424 1506q13 45 57 45q47 0 60 -43l424 -1469q2 -7 2 -16zM694 516l-209 721l-206 -733zM665 1675q0 -63 -68 -63q-63 0 -63 67q0 64 68 64q63 0 63 -68z
M454 1675q0 -27 -21 -45t-49 -18q-63 0 -63 67q0 64 68 64q27 0 46 -20t19 -48z" />
    <glyph glyph-name="Aring" unicode="&#xc5;" horiz-adv-x="989" 
d="M969 -8q0 -62 -62 -62q-44 0 -57 45l-123 428l-481 -14l-127 -452q-12 -43 -58 -43q-61 0 -61 59q0 9 2 16l424 1505q-113 42 -113 162q0 72 51 123t123 51q73 0 124 -51t51 -123q0 -124 -118 -164l423 -1464q2 -7 2 -16zM563 1636q0 32 -22 54t-54 22q-31 0 -53 -22
t-22 -54q0 -31 22 -53t53 -22q32 0 54 22t22 53zM694 516l-209 721l-206 -733z" />
    <glyph glyph-name="AE" unicode="&#xc6;" horiz-adv-x="1595" 
d="M1595 35q0 -57 -59 -58l-674 -6q-60 0 -61 58l-8 303l-498 -13l-223 -393q-19 -32 -52 -32q-61 0 -61 61q0 16 8 31l811 1433q17 29 49 31l605 29q24 1 41.5 -16.5t17.5 -41.5q0 -54 -59 -57l-539 -27l10 -510h459q59 0 59 -57t-59 -57h-455l13 -627l614 6q61 1 61 -57z
M791 446l-17 721l-412 -731z" />
    <glyph glyph-name="Ccedilla" unicode="&#xc7;" horiz-adv-x="905" 
d="M885 219q0 -36 -58 -108q-118 -149 -297 -170v-7q0 -1 -14 -69q166 -25 166 -164q0 -172 -207 -172q-124 0 -258 53q-39 16 -39 58q0 59 62 59q8 0 20 -4q126 -43 219 -43q82 0 82 49q0 45 -119 45q-61 0 -61 61q0 9 28 136q-184 24 -279 161q-89 128 -89 334
q0 370 113 676q130 354 315 354q212 0 303 -383q49 -207 49 -350q0 -61 -57 -61q-55 0 -64 57q-3 47 -12 141q-20 160 -59 281q-66 201 -160 201q-98 0 -201 -277q-106 -287 -106 -639q0 -385 323 -385q149 0 252 135q18 29 37 58q23 33 51 33q60 0 60 -60z" />
    <glyph glyph-name="Egrave" unicode="&#xc8;" horiz-adv-x="899" 
d="M899 29q0 -57 -61 -58l-674 -6q-60 0 -62 60l-30 1355q-2 61 57 64l600 31q64 3 64 -58q0 -54 -58 -57l-540 -27l10 -512h459q59 0 59 -55q0 -57 -59 -57h-455l12 -631l617 8q61 1 61 -57zM505 1595q0 -59 -59 -59q-28 0 -45 18l-150 156q-16 17 -16 41q0 61 61 61
q26 0 43 -18l150 -156q16 -17 16 -43z" />
    <glyph glyph-name="Eacute" unicode="&#xc9;" horiz-adv-x="899" 
d="M899 29q0 -57 -61 -58l-674 -6q-60 0 -62 60l-30 1355q-2 61 57 64l600 31q64 3 64 -58q0 -54 -58 -57l-540 -27l10 -512h459q59 0 59 -55q0 -57 -59 -57h-455l12 -631l617 8q61 1 61 -57zM628 1772q0 -24 -16 -41l-150 -156q-17 -18 -43 -18q-61 0 -61 59q0 26 16 43
l150 156q17 18 45 18q59 0 59 -61z" />
    <glyph glyph-name="Ecircumflex" unicode="&#xca;" horiz-adv-x="899" 
d="M899 29q0 -57 -61 -58l-674 -6q-60 0 -62 60l-30 1355q-2 61 57 64l600 31q64 3 64 -58q0 -54 -58 -57l-540 -27l10 -512h459q59 0 59 -55q0 -57 -59 -57h-455l12 -631l617 8q61 1 61 -57zM679 1618q0 -61 -60 -61q-24 0 -43 18l-145 146l-143 -146q-19 -18 -43 -18
q-62 0 -62 61q0 25 19 43l186 187q18 18 43 18q24 0 43 -18l188 -187q17 -16 17 -43z" />
    <glyph glyph-name="Edieresis" unicode="&#xcb;" horiz-adv-x="899" 
d="M899 29q0 -57 -61 -58l-674 -6q-60 0 -62 60l-30 1355q-2 61 57 64l600 31q64 3 64 -58q0 -54 -58 -57l-540 -27l10 -512h459q59 0 59 -55q0 -57 -59 -57h-455l12 -631l617 8q61 1 61 -57zM624 1614q0 -63 -68 -63q-63 0 -63 67q0 64 68 64q63 0 63 -68zM413 1614
q0 -27 -21 -45t-49 -18q-63 0 -63 67q0 64 68 64q27 0 46 -20t19 -48z" />
    <glyph glyph-name="Igrave" unicode="&#xcc;" horiz-adv-x="686" 
d="M666 41q0 -58 -62 -57l-524 6q-60 0 -60 59q0 56 62 55l192 -2l17 1196l-211 2q-60 1 -60 58q0 58 62 57l524 -6q60 -1 60 -59q0 -56 -62 -56l-192 2l-17 -1196l211 -2q60 0 60 -57zM484 1554q0 -59 -59 -59q-28 0 -45 18l-150 156q-16 17 -16 41q0 61 61 61q26 0 43 -18
l150 -156q16 -17 16 -43z" />
    <glyph glyph-name="Iacute" unicode="&#xcd;" horiz-adv-x="686" 
d="M666 41q0 -58 -62 -57l-524 6q-60 0 -60 59q0 56 62 55l192 -2l17 1196l-211 2q-60 1 -60 58q0 58 62 57l524 -6q60 -1 60 -59q0 -56 -62 -56l-192 2l-17 -1196l211 -2q60 0 60 -57zM566 1751q0 -24 -16 -41l-150 -156q-17 -18 -43 -18q-61 0 -61 59q0 26 16 43l150 156
q17 18 45 18q59 0 59 -61z" />
    <glyph glyph-name="Icircumflex" unicode="&#xce;" horiz-adv-x="686" 
d="M666 41q0 -58 -62 -57l-524 6q-60 0 -60 59q0 56 62 55l192 -2l17 1196l-211 2q-60 1 -60 58q0 58 62 57l524 -6q60 -1 60 -59q0 -56 -62 -56l-192 2l-17 -1196l211 -2q60 0 60 -57zM597 1556q0 -61 -60 -61q-24 0 -43 18l-145 146l-143 -146q-19 -18 -43 -18
q-62 0 -62 61q0 25 19 43l186 187q18 18 43 18q24 0 43 -18l188 -187q17 -16 17 -43z" />
    <glyph glyph-name="Idieresis" unicode="&#xcf;" horiz-adv-x="686" 
d="M666 41q0 -58 -62 -57l-524 6q-60 0 -60 59q0 56 62 55l192 -2l17 1196l-211 2q-60 1 -60 58q0 58 62 57l524 -6q60 -1 60 -59q0 -56 -62 -56l-192 2l-17 -1196l211 -2q60 0 60 -57zM542 1593q0 -63 -68 -63q-63 0 -63 67q0 64 68 64q63 0 63 -68zM331 1593
q0 -27 -21 -45t-49 -18q-63 0 -63 67q0 64 68 64q27 0 46 -20t19 -48z" />
    <glyph glyph-name="Eth" unicode="&#xd0;" horiz-adv-x="926" 
d="M885 803q0 -300 -149 -516q-116 -169 -306 -266q-148 -76 -256 -76q-60 0 -61 59l-15 656l-176 4q-59 1 -59 61q0 61 61 59l171 -3l-13 608q-1 63 104 63q135 0 226 -16q233 -42 358 -220q115 -165 115 -413zM762 803q0 203 -88 338q-97 149 -285 182q-76 13 -184 14
l12 -558l137 -3q60 -1 60 -61q0 -61 -62 -60l-132 3l13 -586q264 65 401 266q128 187 128 465z" />
    <glyph glyph-name="Ntilde" unicode="&#xd1;" horiz-adv-x="961" 
d="M879 1362l-25 -1358q-1 -59 -61 -59q-37 0 -54 35l-534 1132l6 -1098q0 -59 -61 -59q-62 0 -62 59l-6 1358q0 62 61 62q37 0 54 -35l540 -1145l21 1110q1 59 61 59q61 0 60 -61zM777 1647q0 -14 -4 -25q-43 -108 -170 -108q-52 0 -123 39t-95 39q-43 0 -59 -35v-2
q-16 -35 -55 -35q-25 0 -43.5 18.5t-18.5 42.5q0 10 6 25q45 107 173 107q51 0 122 -39t95 -39q40 0 55 35v2q15 34 55 34q62 0 62 -59z" />
    <glyph glyph-name="Ograve" unicode="&#xd2;" horiz-adv-x="993" 
d="M952 627q0 -266 -90 -446q-117 -232 -356 -232q-234 0 -360 213q-105 177 -105 428q0 265 94 513q123 324 342 324q239 0 372 -297q103 -232 103 -503zM829 625q0 215 -74 417q-99 271 -278 271q-154 0 -244 -286q-69 -218 -69 -433q0 -200 71 -345q92 -186 271 -186
q180 0 263 204q60 146 60 358zM628 1554q0 -59 -59 -59q-28 0 -45 18l-150 156q-16 17 -16 41q0 61 61 61q26 0 43 -18l150 -156q16 -17 16 -43z" />
    <glyph glyph-name="Oacute" unicode="&#xd3;" horiz-adv-x="993" 
d="M952 627q0 -266 -90 -446q-117 -232 -356 -232q-234 0 -360 213q-105 177 -105 428q0 265 94 513q123 324 342 324q239 0 372 -297q103 -232 103 -503zM829 625q0 215 -74 417q-99 271 -278 271q-154 0 -244 -286q-69 -218 -69 -433q0 -200 71 -345q92 -186 271 -186
q180 0 263 204q60 146 60 358zM628 1772q0 -24 -16 -41l-150 -156q-17 -18 -43 -18q-61 0 -61 59q0 26 16 43l150 156q17 18 45 18q59 0 59 -61z" />
    <glyph glyph-name="Ocircumflex" unicode="&#xd4;" horiz-adv-x="993" 
d="M952 627q0 -266 -90 -446q-117 -232 -356 -232q-234 0 -360 213q-105 177 -105 428q0 265 94 513q123 324 342 324q239 0 372 -297q103 -232 103 -503zM829 625q0 215 -74 417q-99 271 -278 271q-154 0 -244 -286q-69 -218 -69 -433q0 -200 71 -345q92 -186 271 -186
q180 0 263 204q60 146 60 358zM741 1536q0 -61 -60 -61q-24 0 -43 18l-145 146l-143 -146q-19 -18 -43 -18q-62 0 -62 61q0 25 19 43l186 187q18 18 43 18q24 0 43 -18l188 -187q17 -16 17 -43z" />
    <glyph glyph-name="Otilde" unicode="&#xd5;" horiz-adv-x="993" 
d="M952 627q0 -266 -90 -446q-117 -232 -356 -232q-234 0 -360 213q-105 177 -105 428q0 265 94 513q123 324 342 324q239 0 372 -297q103 -232 103 -503zM829 625q0 215 -74 417q-99 271 -278 271q-154 0 -244 -286q-69 -218 -69 -433q0 -200 71 -345q92 -186 271 -186
q180 0 263 204q60 146 60 358zM777 1626q0 -14 -4 -25q-43 -108 -170 -108q-52 0 -123 39t-95 39q-43 0 -59 -35v-2q-16 -35 -55 -35q-25 0 -43.5 18.5t-18.5 42.5q0 10 6 25q45 107 173 107q51 0 122 -39t95 -39q40 0 55 35v2q15 34 55 34q62 0 62 -59z" />
    <glyph glyph-name="Odieresis" unicode="&#xd6;" horiz-adv-x="993" 
d="M952 627q0 -266 -90 -446q-117 -232 -356 -232q-234 0 -360 213q-105 177 -105 428q0 265 94 513q123 324 342 324q239 0 372 -297q103 -232 103 -503zM829 625q0 215 -74 417q-99 271 -278 271q-154 0 -244 -286q-69 -218 -69 -433q0 -200 71 -345q92 -186 271 -186
q180 0 263 204q60 146 60 358zM665 1593q0 -63 -68 -63q-63 0 -63 67q0 64 68 64q63 0 63 -68zM454 1593q0 -27 -21 -45t-49 -18q-63 0 -63 67q0 64 68 64q27 0 46 -20t19 -48z" />
    <glyph glyph-name="multiply" unicode="&#xd7;" horiz-adv-x="1706" 
d="M1415 135l-82 -82l-475 475l-477 -475l-80 82l475 475l-475 477l80 82l477 -477l475 477l82 -82l-475 -477z" />
    <glyph glyph-name="Oslash" unicode="&#xd8;" horiz-adv-x="993" 
d="M952 627q0 -266 -90 -446q-117 -232 -356 -232q-73 0 -136 21l-22 -79q-12 -43 -57 -43q-62 0 -62 60q0 9 2 16l30 105q-111 85 -169 250q-51 144 -51 311q0 265 94 513q123 324 342 324q90 0 167 -44l32 114q12 43 57 43q62 0 62 -59q0 -9 -2 -17l-48 -167
q104 -119 161 -330q46 -174 46 -340zM829 625q0 114 -27 250q-35 168 -98 278l-302 -1071q48 -19 104 -19q180 0 263 204q60 146 60 358zM611 1266q-61 47 -134 47q-154 0 -244 -286q-69 -218 -69 -433q0 -290 133 -438z" />
    <glyph glyph-name="Ugrave" unicode="&#xd9;" horiz-adv-x="1004" 
d="M922 766q0 -793 -408 -793q-432 0 -432 885q0 373 35 506q14 53 59 53q62 0 62 -61q0 7 -2 -8q-31 -225 -31 -486q0 -774 309 -774q285 0 285 676q0 294 -51 600v10q0 60 59 60q48 0 61 -50q20 -70 38 -310q16 -211 16 -308zM566 1493q0 -59 -59 -59q-28 0 -45 18
l-150 156q-16 17 -16 41q0 61 61 61q26 0 43 -18l150 -156q16 -17 16 -43z" />
    <glyph glyph-name="Uacute" unicode="&#xda;" horiz-adv-x="1004" 
d="M922 766q0 -793 -408 -793q-432 0 -432 885q0 373 35 506q14 53 59 53q62 0 62 -61q0 7 -2 -8q-31 -225 -31 -486q0 -774 309 -774q285 0 285 676q0 294 -51 600v10q0 60 59 60q48 0 61 -50q20 -70 38 -310q16 -211 16 -308zM688 1710q0 -24 -16 -41l-150 -156
q-17 -18 -43 -18q-61 0 -61 59q0 26 16 43l150 156q17 18 45 18q59 0 59 -61z" />
    <glyph glyph-name="Ucircumflex" unicode="&#xdb;" horiz-adv-x="1004" 
d="M922 766q0 -793 -408 -793q-432 0 -432 885q0 373 35 506q14 53 59 53q62 0 62 -61q0 7 -2 -8q-31 -225 -31 -486q0 -774 309 -774q285 0 285 676q0 294 -51 600v10q0 60 59 60q48 0 61 -50q20 -70 38 -310q16 -211 16 -308zM741 1577q0 -61 -60 -61q-24 0 -43 18
l-145 146l-143 -146q-19 -18 -43 -18q-62 0 -62 61q0 25 19 43l186 187q18 18 43 18q24 0 43 -18l188 -187q17 -16 17 -43z" />
    <glyph glyph-name="Udieresis" unicode="&#xdc;" horiz-adv-x="1004" 
d="M922 766q0 -793 -408 -793q-432 0 -432 885q0 373 35 506q14 53 59 53q62 0 62 -61q0 7 -2 -8q-31 -225 -31 -486q0 -774 309 -774q285 0 285 676q0 294 -51 600v10q0 60 59 60q48 0 61 -50q20 -70 38 -310q16 -211 16 -308zM665 1593q0 -63 -68 -63q-63 0 -63 67
q0 64 68 64q63 0 63 -68zM454 1593q0 -27 -21 -45t-49 -18q-63 0 -63 67q0 64 68 64q27 0 46 -20t19 -48z" />
    <glyph glyph-name="Yacute" unicode="&#xdd;" horiz-adv-x="834" 
d="M823 1403q0 -13 -4 -23l-327 -809v-526q0 -61 -62 -61q-59 0 -59 61v524l-365 824q-6 14 -6 24q0 62 57 62q39 0 56 -37l317 -713l283 696q15 39 55 39q55 0 55 -61zM628 1772q0 -24 -16 -41l-150 -156q-17 -18 -43 -18q-61 0 -61 59q0 26 16 43l150 156q17 18 45 18
q59 0 59 -61z" />
    <glyph glyph-name="Thorn" unicode="&#xde;" horiz-adv-x="934" 
d="M893 760q0 -450 -602 -450h-84l-4 -283q-1 -62 -62 -62q-59 0 -59 62l6 1415q0 61 62 61q25 0 43 -18t18 -43l-2 -247h90q594 0 594 -435zM770 760q0 188 -148 264q-108 56 -315 56h-96l-4 -655h98q465 0 465 335z" />
    <glyph glyph-name="germandbls" unicode="&#xdf;" horiz-adv-x="1182" 
d="M1141 211q0 -140 -113 -210q-93 -58 -242 -58q-140 0 -290 71q-66 31 -66 72q0 57 62 57q11 0 28 -8q163 -78 266 -78q234 0 234 154q0 90 -166 133q-155 40 -309 79q-166 67 -166 214q0 114 85 187q76 65 195 79q-19 165 -89 292q-89 163 -222 163q-79 0 -117 -105
q-28 -75 -28 -172q0 -208 19 -567q22 -409 26 -567q1 -64 -58 -64q-61 0 -63 58q-45 1087 -45 1140q0 152 57 258q71 134 209 134q200 0 326 -220q106 -186 106 -399v-6q0 -60 -59 -60q-225 0 -225 -151q0 -85 167 -127q302 -78 310 -81q168 -69 168 -218z" />
    <glyph glyph-name="agrave" unicode="&#xe0;" horiz-adv-x="805" 
d="M727 -33q0 -59 -57 -59q-46 0 -57 44q-7 25 -7 124q-126 -56 -241 -56q-127 0 -209 50q-101 60 -101 178q0 146 167 242q143 81 302 81q53 0 68 -2q-10 244 -158 244q-118 0 -258 -135q-23 -24 -45 -48q-31 -30 -55 -30q-62 0 -62 62q0 22 19 43q77 86 181 150
q123 75 220 75q182 0 246 -178q34 -96 41 -326q6 -195 6 -459zM604 203q-2 125 -6 252q-27 4 -76 4q-105 0 -214 -55q-130 -64 -130 -156q0 -115 187 -115q150 0 239 70zM505 1105q0 -59 -59 -59q-28 0 -45 18l-150 156q-16 17 -16 41q0 61 61 61q26 0 43 -18l150 -156
q16 -17 16 -43z" />
    <glyph glyph-name="aacute" unicode="&#xe1;" horiz-adv-x="805" 
d="M727 -33q0 -59 -57 -59q-46 0 -57 44q-7 25 -7 124q-126 -56 -241 -56q-127 0 -209 50q-101 60 -101 178q0 146 167 242q143 81 302 81q53 0 68 -2q-10 244 -158 244q-118 0 -258 -135q-23 -24 -45 -48q-31 -30 -55 -30q-62 0 -62 62q0 22 19 43q77 86 181 150
q123 75 220 75q182 0 246 -178q34 -96 41 -326q6 -195 6 -459zM604 203q-2 125 -6 252q-27 4 -76 4q-105 0 -214 -55q-130 -64 -130 -156q0 -115 187 -115q150 0 239 70zM566 1261q0 -24 -16 -41l-150 -156q-17 -18 -43 -18q-61 0 -61 59q0 26 16 43l150 156q17 18 45 18
q59 0 59 -61z" />
    <glyph glyph-name="acircumflex" unicode="&#xe2;" horiz-adv-x="805" 
d="M727 -33q0 -59 -57 -59q-46 0 -57 44q-7 25 -7 124q-126 -56 -241 -56q-127 0 -209 50q-101 60 -101 178q0 146 167 242q143 81 302 81q53 0 68 -2q-10 244 -158 244q-118 0 -258 -135q-23 -24 -45 -48q-31 -30 -55 -30q-62 0 -62 62q0 22 19 43q77 86 181 150
q123 75 220 75q182 0 246 -178q34 -96 41 -326q6 -195 6 -459zM604 203q-2 125 -6 252q-27 4 -76 4q-105 0 -214 -55q-130 -64 -130 -156q0 -115 187 -115q150 0 239 70zM638 1086q0 -61 -60 -61q-24 0 -43 18l-145 146l-143 -146q-19 -18 -43 -18q-62 0 -62 61q0 25 19 43
l186 187q18 18 43 18q24 0 43 -18l188 -187q17 -16 17 -43z" />
    <glyph glyph-name="atilde" unicode="&#xe3;" horiz-adv-x="805" 
d="M727 -33q0 -59 -57 -59q-46 0 -57 44q-7 25 -7 124q-126 -56 -241 -56q-127 0 -209 50q-101 60 -101 178q0 146 167 242q143 81 302 81q53 0 68 -2q-10 244 -158 244q-118 0 -258 -135q-23 -24 -45 -48q-31 -30 -55 -30q-62 0 -62 62q0 22 19 43q77 86 181 150
q123 75 220 75q182 0 246 -178q34 -96 41 -326q6 -195 6 -459zM604 203q-2 125 -6 252q-27 4 -76 4q-105 0 -214 -55q-130 -64 -130 -156q0 -115 187 -115q150 0 239 70zM674 1177q0 -14 -4 -25q-43 -108 -170 -108q-52 0 -123 39t-95 39q-43 0 -59 -35v-2q-16 -35 -55 -35
q-25 0 -43.5 18.5t-18.5 42.5q0 10 6 25q45 107 173 107q51 0 122 -39t95 -39q40 0 55 35v2q15 34 55 34q62 0 62 -59z" />
    <glyph glyph-name="adieresis" unicode="&#xe4;" horiz-adv-x="805" 
d="M727 -33q0 -59 -57 -59q-46 0 -57 44q-7 25 -7 124q-126 -56 -241 -56q-127 0 -209 50q-101 60 -101 178q0 146 167 242q143 81 302 81q53 0 68 -2q-10 244 -158 244q-118 0 -258 -135q-23 -24 -45 -48q-31 -30 -55 -30q-62 0 -62 62q0 22 19 43q77 86 181 150
q123 75 220 75q182 0 246 -178q34 -96 41 -326q6 -195 6 -459zM604 203q-2 125 -6 252q-27 4 -76 4q-105 0 -214 -55q-130 -64 -130 -156q0 -115 187 -115q150 0 239 70zM562 1103q0 -63 -68 -63q-63 0 -63 67q0 64 68 64q63 0 63 -68zM351 1103q0 -27 -21 -45t-49 -18
q-63 0 -63 67q0 64 68 64q27 0 46 -20t19 -48z" />
    <glyph glyph-name="aring" unicode="&#xe5;" horiz-adv-x="805" 
d="M727 -33q0 -59 -57 -59q-46 0 -57 44q-7 25 -7 124q-126 -56 -241 -56q-127 0 -209 50q-101 60 -101 178q0 146 167 242q143 81 302 81q53 0 68 -2q-10 244 -158 244q-118 0 -258 -135q-23 -24 -45 -48q-31 -30 -55 -30q-62 0 -62 62q0 22 19 43q77 86 181 150
q123 75 220 75q182 0 246 -178q34 -96 41 -326q6 -195 6 -459zM604 203q-2 125 -6 252q-27 4 -76 4q-105 0 -214 -55q-130 -64 -130 -156q0 -115 187 -115q150 0 239 70zM564 1171q0 -72 -51 -123t-123 -51t-123 51t-51 123t51 123t123 51t123 -51t51 -123zM466 1171
q0 31 -22.5 53.5t-53.5 22.5t-53.5 -22.5t-22.5 -53.5t22.5 -53.5t53.5 -22.5t53.5 22.5t22.5 53.5z" />
    <glyph glyph-name="ae" unicode="&#xe6;" horiz-adv-x="1354" 
d="M1364 180q0 -39 -68 -82q-145 -92 -333 -92q-151 0 -244 111v-39q0 -60 -53 -60q-46 0 -57 44q-7 25 -7 124q-126 -55 -242 -55q-126 0 -209 50q-100 60 -100 177q0 147 167 242q143 82 302 82q53 0 68 -2q-10 244 -158 244q-118 0 -258 -136q-23 -24 -45 -48
q-31 -29 -55 -29q-62 0 -62 61q0 22 19 43q77 86 181 150q123 75 220 75q195 0 252 -204q95 178 254 178q171 0 262 -156q76 -129 76 -317q0 -63 -55 -68l-504 -41v-10q0 -116 63 -203q70 -98 185 -98q157 0 301 100q23 17 39 17q61 0 61 -58zM1153 584q-41 315 -221 315
q-95 0 -160 -129q-55 -110 -55 -223zM600 313q-2 126 -6 252q-27 4 -76 4q-105 0 -215 -54q-129 -65 -129 -157q0 -114 186 -114q150 0 240 69z" />
    <glyph glyph-name="ccedilla" unicode="&#xe7;" horiz-adv-x="799" 
d="M788 143q0 -31 -55 -80q-115 -101 -244 -114q-5 -22 -14 -64q166 -24 166 -164q0 -172 -207 -172q-123 0 -258 54q-39 15 -39 57q0 59 62 59q8 0 20 -4q126 -43 219 -43q82 0 82 49q0 46 -119 46q-61 0 -61 61q0 18 25 125q-142 20 -227 97q-97 87 -97 231q0 120 31 243
q38 155 116 269q102 151 232 151q186 0 262 -248q37 -120 37 -221q0 -61 -57 -61q-53 0 -64 63q-2 27 -8 80q-40 272 -170 272q-86 0 -170 -163q-88 -172 -88 -385q0 -114 94 -171q78 -49 199 -49q95 0 196 89q17 17 35.5 36t40.5 19q61 0 61 -62z" />
    <glyph glyph-name="egrave" unicode="&#xe8;" horiz-adv-x="797" 
d="M807 70q0 -40 -68 -82q-145 -92 -333 -92q-180 0 -278 153q-83 131 -83 324q0 247 104 395q95 135 230 135q171 0 262 -155q76 -130 76 -318q0 -63 -55 -68l-494 -40q10 -128 60 -209q64 -103 178 -103q157 0 301 101q23 16 38 16q62 0 62 -57zM596 473q-41 315 -221 315
q-95 0 -155 -129q-50 -107 -50 -223zM505 1084q0 -59 -59 -59q-28 0 -45 18l-150 156q-16 17 -16 41q0 61 61 61q26 0 43 -18l150 -156q16 -17 16 -43z" />
    <glyph glyph-name="eacute" unicode="&#xe9;" horiz-adv-x="797" 
d="M807 70q0 -40 -68 -82q-145 -92 -333 -92q-180 0 -278 153q-83 131 -83 324q0 247 104 395q95 135 230 135q171 0 262 -155q76 -130 76 -318q0 -63 -55 -68l-494 -40q10 -128 60 -209q64 -103 178 -103q157 0 301 101q23 16 38 16q62 0 62 -57zM596 473q-41 315 -221 315
q-95 0 -155 -129q-50 -107 -50 -223zM546 1261q0 -24 -16 -41l-150 -156q-17 -18 -43 -18q-61 0 -61 59q0 26 16 43l150 156q17 18 45 18q59 0 59 -61z" />
    <glyph glyph-name="ecircumflex" unicode="&#xea;" horiz-adv-x="797" 
d="M807 70q0 -40 -68 -82q-145 -92 -333 -92q-180 0 -278 153q-83 131 -83 324q0 247 104 395q95 135 230 135q171 0 262 -155q76 -130 76 -318q0 -63 -55 -68l-494 -40q10 -128 60 -209q64 -103 178 -103q157 0 301 101q23 16 38 16q62 0 62 -57zM596 473q-41 315 -221 315
q-95 0 -155 -129q-50 -107 -50 -223zM618 1066q0 -61 -60 -61q-24 0 -43 18l-145 146l-143 -146q-19 -18 -43 -18q-62 0 -62 61q0 25 19 43l186 187q18 18 43 18q24 0 43 -18l188 -187q17 -16 17 -43z" />
    <glyph glyph-name="edieresis" unicode="&#xeb;" horiz-adv-x="797" 
d="M807 70q0 -40 -68 -82q-145 -92 -333 -92q-180 0 -278 153q-83 131 -83 324q0 247 104 395q95 135 230 135q171 0 262 -155q76 -130 76 -318q0 -63 -55 -68l-494 -40q10 -128 60 -209q64 -103 178 -103q157 0 301 101q23 16 38 16q62 0 62 -57zM596 473q-41 315 -221 315
q-95 0 -155 -129q-50 -107 -50 -223zM583 1062q0 -63 -68 -63q-63 0 -63 67q0 64 68 64q63 0 63 -68zM372 1062q0 -27 -21 -45t-49 -18q-63 0 -63 67q0 64 68 64q27 0 46 -20t19 -48z" />
    <glyph glyph-name="igrave" unicode="&#xec;" horiz-adv-x="315" 
d="M238 45q1 -24 -16 -43.5t-42 -19.5q-61 0 -63 57l-39 817q-1 25 16 44.5t41 19.5q61 0 64 -58zM177 1105q0 -59 -59 -59q-28 0 -45 18l-150 156q-16 17 -16 41q0 61 61 61q26 0 43 -18l150 -156q16 -17 16 -43z" />
    <glyph glyph-name="iacute" unicode="&#xed;" horiz-adv-x="315" 
d="M238 45q1 -24 -16 -43.5t-42 -19.5q-61 0 -63 57l-39 817q-1 25 16 44.5t41 19.5q61 0 64 -58zM341 1321q0 -24 -16 -41l-150 -156q-17 -18 -43 -18q-61 0 -61 59q0 26 16 43l150 156q17 18 45 18q59 0 59 -61z" />
    <glyph glyph-name="icircumflex" unicode="&#xee;" horiz-adv-x="315" 
d="M238 45q1 -24 -16 -43.5t-42 -19.5q-61 0 -63 57l-39 817q-1 25 16 44.5t41 19.5q61 0 64 -58zM372 1086q0 -61 -60 -61q-24 0 -43 18l-145 146l-143 -146q-19 -18 -43 -18q-62 0 -62 61q0 25 19 43l186 187q18 18 43 18q24 0 43 -18l188 -187q17 -16 17 -43z" />
    <glyph glyph-name="idieresis" unicode="&#xef;" horiz-adv-x="315" 
d="M238 45q1 -24 -16 -43.5t-42 -19.5q-61 0 -63 57l-39 817q-1 25 16 44.5t41 19.5q61 0 64 -58zM296 1144q0 -63 -68 -63q-63 0 -63 67q0 64 68 64q63 0 63 -68zM85 1144q0 -27 -21 -45t-49 -18q-63 0 -63 67q0 64 68 64q27 0 46 -20t19 -48z" />
    <glyph glyph-name="eth" unicode="&#xf0;" horiz-adv-x="766" 
d="M725 449q0 -200 -67 -323q-81 -153 -250 -153q-175 0 -268 129q-83 114 -83 295q0 186 69 338q88 197 251 197q52 0 108 -23q-55 135 -178 277l-174 -123q-14 -10 -35 -10q-57 0 -57 55q0 30 27 49l157 111q-28 26 -119 96q-26 21 -26 47q0 59 59 59q49 0 187 -133
l163 115q15 10 35 10q56 0 56 -55q0 -32 -25 -49l-149 -105q145 -169 235 -403q84 -221 84 -401zM604 432q0 145 -49 252q-62 133 -178 133q-101 0 -157 -169q-42 -124 -42 -251q0 -309 230 -309q110 0 160 125q36 89 36 219z" />
    <glyph glyph-name="ntilde" unicode="&#xf1;" horiz-adv-x="901" 
d="M823 229q0 -160 -6 -198q-9 -56 -63 -56q-58 0 -58 64q0 30 3 91t3 91q0 598 -131 598q-83 0 -206 -157q-82 -104 -148 -228q10 -252 10 -409q0 -62 -59 -62q-60 0 -62 60q-5 168 -16 464q-2 46 -15 208q-9 128 -9 204v4q0 62 61 62q55 0 59 -56q1 -4 17 -295
q94 141 153 203q113 119 215 119q252 0 252 -707zM756 1156q0 -14 -4 -25q-43 -108 -170 -108q-52 0 -123 39t-95 39q-43 0 -59 -35v-2q-16 -35 -55 -35q-25 0 -43.5 18.5t-18.5 42.5q0 10 6 25q45 107 173 107q51 0 122 -39t95 -39q40 0 55 35v2q15 34 55 34q62 0 62 -59z
" />
    <glyph glyph-name="ograve" unicode="&#xf2;" horiz-adv-x="750" 
d="M709 438q0 -185 -65 -306q-82 -155 -251 -155q-175 0 -269 129q-83 114 -83 295q0 186 69 342q90 201 252 201q167 0 265 -177q82 -148 82 -329zM588 438q0 126 -52 243q-65 148 -174 148q-100 0 -158 -172q-42 -129 -42 -256q0 -309 231 -309q110 0 160 126
q35 88 35 220zM505 1105q0 -59 -59 -59q-28 0 -45 18l-150 156q-16 17 -16 41q0 61 61 61q26 0 43 -18l150 -156q16 -17 16 -43z" />
    <glyph glyph-name="oacute" unicode="&#xf3;" horiz-adv-x="750" 
d="M709 438q0 -185 -65 -306q-82 -155 -251 -155q-175 0 -269 129q-83 114 -83 295q0 186 69 342q90 201 252 201q167 0 265 -177q82 -148 82 -329zM588 438q0 126 -52 243q-65 148 -174 148q-100 0 -158 -172q-42 -129 -42 -256q0 -309 231 -309q110 0 160 126
q35 88 35 220zM546 1280q0 -24 -16 -41l-150 -156q-17 -18 -43 -18q-61 0 -61 59q0 26 16 43l150 156q17 18 45 18q59 0 59 -61z" />
    <glyph glyph-name="ocircumflex" unicode="&#xf4;" horiz-adv-x="750" 
d="M709 438q0 -185 -65 -306q-82 -155 -251 -155q-175 0 -269 129q-83 114 -83 295q0 186 69 342q90 201 252 201q167 0 265 -177q82 -148 82 -329zM588 438q0 126 -52 243q-65 148 -174 148q-100 0 -158 -172q-42 -129 -42 -256q0 -309 231 -309q110 0 160 126
q35 88 35 220zM597 1086q0 -61 -60 -61q-24 0 -43 18l-145 146l-143 -146q-19 -18 -43 -18q-62 0 -62 61q0 25 19 43l186 187q18 18 43 18q24 0 43 -18l188 -187q17 -16 17 -43z" />
    <glyph glyph-name="otilde" unicode="&#xf5;" horiz-adv-x="750" 
d="M709 438q0 -185 -65 -306q-82 -155 -251 -155q-175 0 -269 129q-83 114 -83 295q0 186 69 342q90 201 252 201q167 0 265 -177q82 -148 82 -329zM588 438q0 126 -52 243q-65 148 -174 148q-100 0 -158 -172q-42 -129 -42 -256q0 -309 231 -309q110 0 160 126
q35 88 35 220zM674 1177q0 -14 -4 -25q-43 -108 -170 -108q-52 0 -123 39t-95 39q-43 0 -59 -35v-2q-16 -35 -55 -35q-25 0 -43.5 18.5t-18.5 42.5q0 10 6 25q45 107 173 107q51 0 122 -39t95 -39q40 0 55 35v2q15 34 55 34q62 0 62 -59z" />
    <glyph glyph-name="odieresis" unicode="&#xf6;" horiz-adv-x="750" 
d="M709 438q0 -185 -65 -306q-82 -155 -251 -155q-175 0 -269 129q-83 114 -83 295q0 186 69 342q90 201 252 201q167 0 265 -177q82 -148 82 -329zM588 438q0 126 -52 243q-65 148 -174 148q-100 0 -158 -172q-42 -129 -42 -256q0 -309 231 -309q110 0 160 126
q35 88 35 220zM542 1123q0 -63 -68 -63q-63 0 -63 67q0 64 68 64q63 0 63 -68zM331 1123q0 -27 -21 -45t-49 -18q-63 0 -63 67q0 64 68 64q27 0 46 -20t19 -48z" />
    <glyph glyph-name="divide" unicode="&#xf7;" horiz-adv-x="1706" 
d="M969 971q0 -50 -33 -82.5t-82 -32.5t-82 32.5t-33 82.5q0 47 34 80.5t81 33.5t81 -33.5t34 -80.5zM1452 553h-1198v117h1198v-117zM969 250q0 -47 -33.5 -81t-81.5 -34q-49 0 -82 32.5t-33 82.5q0 49 33 82t82 33t82 -33t33 -82z" />
    <glyph glyph-name="oslash" unicode="&#xf8;" horiz-adv-x="750" 
d="M709 438q0 -185 -65 -306q-82 -155 -251 -155q-45 0 -86 10l-14 -50q-13 -43 -57 -43q-62 0 -62 59q0 9 2 16l19 67q-154 109 -154 365q0 186 69 342q90 201 252 201q49 0 93 -16l8 28q12 43 57 43q62 0 62 -59q0 -9 -2 -16l-20 -66q73 -74 113 -199q36 -110 36 -221z
M588 438q0 153 -69 278l-179 -618q25 -6 53 -6q110 0 160 126q35 88 35 220zM422 816q-28 13 -60 13q-100 0 -158 -172q-42 -129 -42 -256q0 -159 70 -240z" />
    <glyph glyph-name="ugrave" unicode="&#xf9;" horiz-adv-x="862" 
d="M793 582q0 -613 -355 -613q-223 0 -319 257q-66 175 -66 446q0 136 8 176q11 53 60 53q61 0 61 -59v-8q0 -27 -4 -79.5t-4 -78.5q0 -216 41 -362q65 -230 223 -230q234 0 234 500q0 129 -19 258v10q0 59 62 59q45 0 59 -51q19 -65 19 -278zM484 1043q0 -59 -59 -59
q-28 0 -45 18l-150 156q-16 17 -16 41q0 61 61 61q26 0 43 -18l150 -156q16 -17 16 -43z" />
    <glyph glyph-name="uacute" unicode="&#xfa;" horiz-adv-x="862" 
d="M793 582q0 -613 -355 -613q-223 0 -319 257q-66 175 -66 446q0 136 8 176q11 53 60 53q61 0 61 -59v-8q0 -27 -4 -79.5t-4 -78.5q0 -216 41 -362q65 -230 223 -230q234 0 234 500q0 129 -19 258v10q0 59 62 59q45 0 59 -51q19 -65 19 -278zM628 1199q0 -24 -16 -41
l-150 -156q-17 -18 -43 -18q-61 0 -61 59q0 26 16 43l150 156q17 18 45 18q59 0 59 -61z" />
    <glyph glyph-name="ucircumflex" unicode="&#xfb;" horiz-adv-x="862" 
d="M793 582q0 -613 -355 -613q-223 0 -319 257q-66 175 -66 446q0 136 8 176q11 53 60 53q61 0 61 -59v-8q0 -27 -4 -79.5t-4 -78.5q0 -216 41 -362q65 -230 223 -230q234 0 234 500q0 129 -19 258v10q0 59 62 59q45 0 59 -51q19 -65 19 -278zM659 1086q0 -61 -60 -61
q-24 0 -43 18l-145 146l-143 -146q-19 -18 -43 -18q-62 0 -62 61q0 25 19 43l186 187q18 18 43 18q24 0 43 -18l188 -187q17 -16 17 -43z" />
    <glyph glyph-name="udieresis" unicode="&#xfc;" horiz-adv-x="862" 
d="M793 582q0 -613 -355 -613q-223 0 -319 257q-66 175 -66 446q0 136 8 176q11 53 60 53q61 0 61 -59v-8q0 -27 -4 -79.5t-4 -78.5q0 -216 41 -362q65 -230 223 -230q234 0 234 500q0 129 -19 258v10q0 59 62 59q45 0 59 -51q19 -65 19 -278zM603 1062q0 -63 -68 -63
q-63 0 -63 67q0 64 68 64q63 0 63 -68zM392 1062q0 -27 -21 -45t-49 -18q-63 0 -63 67q0 64 68 64q27 0 46 -20t19 -48z" />
    <glyph glyph-name="yacute" unicode="&#xfd;" horiz-adv-x="844" 
d="M817 854q0 -43 -186 -563q-202 -562 -291 -643q-52 -47 -139 -47q-58 0 -138.5 25.5t-125.5 60.5q-29 21 -29 51q0 55 61 55q8 0 91.5 -39t140.5 -39q37 0 61 19q30 22 125 256l-379 792q-6 13 -6 25q0 61 57 61q39 0 56 -34l331 -697q96 252 177 492q25 81 79 243
q16 43 60 43q55 0 55 -61zM587 1138q0 -24 -16 -41l-150 -156q-17 -18 -43 -18q-61 0 -61 59q0 26 16 43l150 156q17 18 45 18q59 0 59 -61z" />
    <glyph glyph-name="thorn" unicode="&#xfe;" horiz-adv-x="879" 
d="M834 373q0 -182 -79 -287q-88 -119 -263 -119q-152 0 -281 119l-14 -535q-2 -59 -62 -59q-25 0 -42.5 18.5t-16.5 43.5l45 1943q1 59 61 59t60 -61q0 -88 -15 -676q127 80 222 80q189 0 295 -176q90 -148 90 -350zM713 373q0 150 -57 266q-72 145 -207 145
q-108 0 -224 -106l-10 -434q130 -162 277 -162q221 0 221 291z" />
    <glyph glyph-name="ydieresis" unicode="&#xff;" horiz-adv-x="844" 
d="M817 854q0 -43 -186 -563q-202 -562 -291 -643q-52 -47 -139 -47q-58 0 -138.5 25.5t-125.5 60.5q-29 21 -29 51q0 55 61 55q8 0 91.5 -39t140.5 -39q37 0 61 19q30 22 125 256l-379 792q-6 13 -6 25q0 61 57 61q39 0 56 -34l331 -697q96 252 177 492q25 81 79 243
q16 43 60 43q55 0 55 -61zM583 980q0 -63 -68 -63q-63 0 -63 67q0 64 68 64q63 0 63 -68zM372 980q0 -27 -21 -45t-49 -18q-63 0 -63 67q0 64 68 64q27 0 46 -20t19 -48z" />
    <glyph glyph-name="Cacute" unicode="&#x106;" horiz-adv-x="905" 
d="M885 219q0 -36 -58 -108q-136 -172 -342 -172q-221 0 -337 141q-107 131 -107 358q0 370 113 676q130 354 315 354q212 0 303 -383q49 -207 49 -350q0 -61 -57 -61q-55 0 -64 57q-3 47 -12 141q-20 160 -59 281q-66 201 -160 201q-98 0 -201 -277q-106 -287 -106 -639
q0 -385 323 -385q149 0 252 135q18 29 37 58q23 33 51 33q60 0 60 -60zM647 1751q0 -24 -16 -41l-150 -156q-17 -18 -43 -18q-61 0 -61 59q0 26 16 43l150 156q17 18 45 18q59 0 59 -61z" />
    <glyph glyph-name="cacute" unicode="&#x107;" horiz-adv-x="799" 
d="M788 143q0 -31 -55 -80q-132 -116 -278 -116q-173 0 -286 78q-128 89 -128 256q0 120 31 243q38 155 116 269q102 151 232 151q186 0 262 -248q37 -120 37 -221q0 -61 -57 -61q-53 0 -64 63q-2 27 -8 80q-40 272 -170 272q-86 0 -170 -163q-88 -172 -88 -385
q0 -114 94 -171q78 -49 199 -49q95 0 196 89q17 17 35.5 36t40.5 19q61 0 61 -62zM647 1240q0 -24 -16 -41l-150 -156q-17 -18 -43 -18q-61 0 -61 59q0 26 16 43l150 156q17 18 45 18q59 0 59 -61z" />
    <glyph glyph-name="Ccaron" unicode="&#x10c;" horiz-adv-x="905" 
d="M885 219q0 -36 -58 -108q-136 -172 -342 -172q-221 0 -337 141q-107 131 -107 358q0 370 113 676q130 354 315 354q212 0 303 -383q49 -207 49 -350q0 -61 -57 -61q-55 0 -64 57q-3 47 -12 141q-20 160 -59 281q-66 201 -160 201q-98 0 -201 -277q-106 -287 -106 -639
q0 -385 323 -385q149 0 252 135q18 29 37 58q23 33 51 33q60 0 60 -60zM720 1784q0 -27 -17 -43l-188 -187q-19 -18 -43 -18q-25 0 -43 18l-186 187q-19 18 -19 43q0 61 62 61q24 0 43 -18l143 -144l145 144q19 18 43 18q60 0 60 -61z" />
    <glyph glyph-name="ccaron" unicode="&#x10d;" horiz-adv-x="799" 
d="M788 143q0 -31 -55 -80q-132 -116 -278 -116q-173 0 -286 78q-128 89 -128 256q0 120 31 243q38 155 116 269q102 151 232 151q186 0 262 -248q37 -120 37 -221q0 -61 -57 -61q-53 0 -64 63q-2 27 -8 80q-40 272 -170 272q-86 0 -170 -163q-88 -172 -88 -385
q0 -114 94 -171q78 -49 199 -49q95 0 196 89q17 17 35.5 36t40.5 19q61 0 61 -62zM659 1313q0 -27 -17 -43l-188 -187q-19 -18 -43 -18q-25 0 -43 18l-186 187q-19 18 -19 43q0 61 62 61q24 0 43 -18l143 -144l145 144q19 18 43 18q60 0 60 -61z" />
    <glyph glyph-name="dcroat" unicode="&#x111;" horiz-adv-x="901" 
d="M995 1096q0 -61 -61 -60l-157 3l52 -1170q2 -25 -15.5 -44.5t-41.5 -19.5q-61 0 -63 58l-11 209q-153 -105 -292 -105q-172 0 -271 115q-94 110 -94 285q0 235 109 404t256 169q130 0 260 -113l-10 215l-152 2q-60 2 -60 62t62 59l145 -2l-10 217q-1 25 16 44.5t41 19.5
q61 0 64 -58l10 -226l164 -3q59 -1 59 -61zM692 209l-18 438q-129 178 -268 178q-107 0 -180 -158q-64 -140 -64 -300q0 -127 59 -202q64 -83 185 -83q153 0 286 127z" />
    <glyph glyph-name="Gbreve" unicode="&#x11e;" horiz-adv-x="967" 
d="M936 498q0 -166 -93 -325q-125 -214 -349 -214q-222 0 -346 183q-107 160 -107 393q0 377 123 651q136 303 336 303q224 0 323 -363q51 -186 51 -329q0 -64 -57 -64q-56 0 -63 58q-4 47 -15 141q-67 442 -239 442q-120 0 -226 -233q-110 -244 -110 -606q0 -182 73 -308
q89 -153 257 -153q137 0 225 118q77 102 92 252h-360q-62 0 -62 58q0 57 62 57h423q62 0 62 -61zM741 1825q0 -7 -2 -15q-24 -94 -86 -159q-70 -74 -160 -74t-160 74q-62 65 -86 159q-2 8 -2 15q0 61 62 61q41 0 57 -45q49 -141 129 -141t129 141q16 45 59 45q60 0 60 -61z
" />
    <glyph glyph-name="gbreve" unicode="&#x11f;" horiz-adv-x="870" 
d="M638 1232q0 -7 -2 -15q-24 -94 -86 -159q-70 -74 -160 -74t-160 74q-62 65 -86 159q-2 8 -2 15q0 61 62 61q41 0 57 -45q49 -141 129 -141t129 141q16 45 59 45q60 0 60 -61zM803 -2q0 -237 -40 -319q-69 -144 -302 -144q-102 0 -212 40q-120 43 -183 112q-19 20 -19 45
q0 59 59 59q22 0 48 -19q21 -17 43 -34q129 -88 268 -88q159 0 199 103q18 49 18 249q-141 -82 -270 -82q-164 0 -267.5 111t-103.5 276q0 197 98 373q116 209 297 209q89 0 185 -51q-9 70 -9 94q0 59 60 59q55 0 61 -53q70 -589 70 -940zM680 129q-10 264 -41 571
q-102 74 -203 74q-125 0 -207 -175q-67 -145 -67 -292q0 -115 67 -192q70 -80 183 -80q125 0 268 94z" />
    <glyph glyph-name="Idotaccent" unicode="&#x130;" horiz-adv-x="686" 
d="M666 41q0 -58 -62 -57l-524 6q-60 0 -60 59q0 56 62 55l192 -2l17 1196l-211 2q-60 1 -60 58q0 58 62 57l524 -6q60 -1 60 -59q0 -56 -62 -56l-192 2l-17 -1196l211 -2q60 0 60 -57zM437 1593q0 -27 -21 -45t-49 -18q-64 0 -64 67q0 64 68 64q27 0 46.5 -20t19.5 -48z
" />
    <glyph glyph-name="dotlessi" unicode="&#x131;" horiz-adv-x="315" 
d="M238 45q1 -24 -16 -43.5t-42 -19.5q-61 0 -63 57l-39 817q-1 25 16 44.5t41 19.5q61 0 64 -58z" />
    <glyph glyph-name="Lslash" unicode="&#x141;" horiz-adv-x="829" 
d="M819 8q0 -58 -61 -57l-592 6q-58 1 -60 59l-21 650l-73 -49q-16 -11 -34 -11q-32 0 -50 27q-11 15 -11 33q0 33 27 51l137 92l-20 596q0 24 17.5 42.5t42.5 18.5q59 0 61 -57l18 -520l101 68q15 10 33 10q32 0 51 -27q10 -14 10 -33q0 -32 -26 -50l-164 -111l22 -674
l533 -6q59 -1 59 -58z" />
    <glyph glyph-name="lslash" unicode="&#x142;" horiz-adv-x="326" 
d="M385 1022q10 -15 10 -33q0 -33 -26 -50l-160 -107l39 -859q1 -24 -17 -43.5t-43 -19.5q-61 0 -63 57l-34 785l-79 -53q-16 -11 -34 -11q-32 0 -50 27q-11 15 -11 33q0 33 27 51l141 94l-28 633q-1 24 16 43.5t42 19.5q61 0 63 -57l25 -559l98 66q15 10 33 10q32 0 51 -27
z" />
    <glyph glyph-name="OE" unicode="&#x152;" horiz-adv-x="1407" 
d="M1407 33q0 -57 -59 -58l-676 -8q-281 -3 -457 180q-174 180 -174 463q0 307 142 546q166 281 452 294l602 27q63 2 63 -58q0 -54 -57 -57l-541 -27l13 -510h456q62 0 62 -59q0 -55 -62 -55h-454l14 -627l615 6q61 1 61 -57zM608 88l-26 1241q-195 -29 -316 -278
q-102 -210 -102 -439q0 -214 115 -357q121 -150 329 -167z" />
    <glyph glyph-name="oe" unicode="&#x153;" horiz-adv-x="1325" 
d="M1335 180q0 -39 -67 -82q-146 -92 -334 -92q-220 0 -308 227q-82 -141 -243 -141q-175 0 -269 129q-83 114 -83 295q0 186 69 342q89 201 252 201q199 0 296 -243q92 198 259 198q172 0 263 -156q75 -129 75 -317q0 -63 -55 -68l-494 -41q10 -128 61 -209
q63 -102 177 -102q157 0 301 100q23 17 39 17q61 0 61 -58zM1124 584q-41 315 -221 315q-94 0 -154 -129q-51 -108 -51 -223zM578 553q0 125 -52 243q-65 148 -174 148q-101 0 -158 -173q-42 -128 -42 -255q0 -309 231 -309q110 0 160 126q35 88 35 220z" />
    <glyph glyph-name="Scedilla" unicode="&#x15e;" horiz-adv-x="942" 
d="M872 381q0 -149 -98.5 -255.5t-245.5 -128.5q-4 -17 -12 -50q166 -25 166 -164q0 -172 -207 -172q-124 0 -258 53q-39 16 -39 57q0 60 62 60q8 0 20 -4q126 -43 219 -43q82 0 82 49q0 45 -119 45q-61 0 -61 61q0 23 21 107q-127 18 -222 104.5t-127 212.5q-2 9 -2 15
q0 59 62 59q36 0 57 -49q8 -24 29 -70q86 -162 262 -162q120 0 202 75q87 78 87 200q0 129 -89 199q-52 41 -206 96q-187 67 -264 136q-109 98 -109 269q0 168 110 269q106 98 275 98q215 0 336 -207q43 -74 43 -104q0 -60 -60 -60q-35 0 -55 37q-14 33 -29 66
q-87 153 -235 153q-118 0 -188 -64q-74 -68 -74 -188q0 -127 87 -196q51 -40 204 -94q188 -68 266 -138q110 -99 110 -272z" />
    <glyph glyph-name="scedilla" unicode="&#x15f;" horiz-adv-x="842" 
d="M791 254q0 -233 -285 -265q-4 -14 -10 -42q166 -25 166 -164q0 -172 -207 -172q-124 0 -258 53q-39 16 -39 57q0 60 61 60q9 0 21 -4q125 -43 219 -43q82 0 82 49q0 45 -119 45q-62 0 -62 61q0 23 20 100q-114 11 -228 64q-74 34 -74 76q0 53 61 53q14 0 31 -8
q156 -74 266 -74q234 0 234 150q0 92 -167 137l-310 80q-166 67 -166 213q0 135 107 209q93 63 235 63q205 0 348 -102q59 -43 59 -78q0 -53 -61 -53q-20 0 -45 20q-122 99 -301 99q-89 0 -147 -32q-75 -40 -75 -122q0 -87 167 -130q307 -80 310 -81q167 -69 167 -219z" />
    <glyph glyph-name="Scaron" unicode="&#x160;" horiz-adv-x="942" 
d="M872 381q0 -167 -123 -280q-119 -109 -288 -109q-145 0 -259 90t-149 231q-2 9 -2 15q0 59 62 59q36 0 57 -49q8 -24 29 -70q86 -162 262 -162q120 0 202 75q87 78 87 200q0 129 -89 199q-52 41 -206 96q-187 67 -264 136q-109 98 -109 269q0 168 110 269q106 98 275 98
q215 0 336 -207q43 -74 43 -104q0 -60 -60 -60q-35 0 -55 37q-14 33 -29 66q-87 153 -235 153q-118 0 -188 -64q-74 -68 -74 -188q0 -127 87 -196q51 -40 204 -94q188 -68 266 -138q110 -99 110 -272zM720 1784q0 -27 -17 -43l-188 -187q-19 -18 -43 -18q-25 0 -43 18
l-186 187q-19 18 -19 43q0 61 62 61q24 0 43 -18l143 -144l145 144q19 18 43 18q60 0 60 -61z" />
    <glyph glyph-name="scaron" unicode="&#x161;" horiz-adv-x="842" 
d="M791 254q0 -140 -113 -210q-93 -58 -242 -58q-139 0 -284 67q-74 34 -74 76q0 53 61 53q14 0 31 -8q156 -74 266 -74q234 0 234 150q0 92 -167 137l-310 80q-166 67 -166 213q0 135 107 209q93 63 235 63q205 0 348 -102q59 -43 59 -78q0 -53 -61 -53q-20 0 -45 20
q-122 99 -301 99q-89 0 -147 -32q-75 -40 -75 -122q0 -87 167 -130q307 -80 310 -81q167 -69 167 -219zM659 1294q0 -27 -17 -43l-188 -187q-19 -18 -43 -18q-25 0 -43 18l-186 187q-19 18 -19 43q0 61 62 61q24 0 43 -18l143 -144l145 144q19 18 43 18q60 0 60 -61z" />
    <glyph glyph-name="Ydieresis" unicode="&#x178;" horiz-adv-x="834" 
d="M823 1403q0 -13 -4 -23l-327 -809v-526q0 -61 -62 -61q-59 0 -59 61v524l-365 824q-6 14 -6 24q0 62 57 62q39 0 56 -37l317 -713l283 696q15 39 55 39q55 0 55 -61zM603 1593q0 -63 -68 -63q-63 0 -63 67q0 64 68 64q63 0 63 -68zM392 1593q0 -27 -21 -45t-49 -18
q-63 0 -63 67q0 64 68 64q27 0 46 -20t19 -48z" />
    <glyph glyph-name="Zcaron" unicode="&#x17d;" horiz-adv-x="856" 
d="M815 66q0 -58 -61 -58h-650q-61 0 -61 62q0 11 6 24l580 1219l-529 10q-59 1 -59 59q0 57 61 56l615 -11q59 -1 59 -61q0 -14 -6 -27l-580 -1216h564q61 0 61 -57zM659 1784q0 -27 -17 -43l-188 -187q-19 -18 -43 -18q-25 0 -43 18l-186 187q-19 18 -19 43q0 61 62 61
q24 0 43 -18l143 -144l145 144q19 18 43 18q60 0 60 -61z" />
    <glyph glyph-name="zcaron" unicode="&#x17e;" horiz-adv-x="784" 
d="M754 57q0 -57 -60 -57h-600q-59 0 -59 61q0 19 12 35l504 682l-461 4q-59 1 -59 58q0 58 61 57l565 -8q60 -1 60 -62q0 -18 -12 -34l-502 -678h491q60 0 60 -58zM638 1273q0 -27 -17 -43l-188 -187q-19 -18 -43 -18q-25 0 -43 18l-186 187q-19 18 -19 43q0 61 62 61
q24 0 43 -18l143 -144l145 144q19 18 43 18q60 0 60 -61z" />
    <glyph glyph-name="florin" unicode="&#x192;" horiz-adv-x="1104" 
d="M1157 1214q0 -25 -18 -43t-43 -18q-43 0 -60 55q-41 133 -147 133q-76 0 -147 -225q-46 -146 -72 -313h225q61 0 61 -60q0 -57 -61 -57h-248q-38 -216 -77 -433q-58 -279 -134 -427q-100 -193 -241 -193q-106 0 -185 67q-84 71 -84 175v4q0 62 62 62q42 0 55 -58
q31 -135 152 -135q117 0 208 335q29 109 121 603h-223q-59 0 -59 57q0 60 59 60h246q54 279 97 396q95 257 245 257q102 0 176 -65t92 -166v-11z" />
    <glyph glyph-name="circumflex" unicode="&#x2c6;" 
d="M760 1126q0 -61 -60 -61q-24 0 -43 18l-145 146l-143 -146q-19 -18 -43 -18q-62 0 -62 61q0 25 19 43l186 187q18 18 43 18q24 0 43 -18l188 -187q17 -16 17 -43z" />
    <glyph glyph-name="caron" unicode="&#x2c7;" 
d="M760 1313q0 -27 -17 -43l-188 -187q-19 -18 -43 -18q-25 0 -43 18l-186 187q-19 18 -19 43q0 61 62 61q24 0 43 -18l143 -144l145 144q19 18 43 18q60 0 60 -61z" />
    <glyph glyph-name="breve" unicode="&#x2d8;" 
d="M760 1313q0 -7 -2 -15q-24 -94 -86 -159q-70 -74 -160 -74t-160 74q-62 65 -86 159q-2 8 -2 15q0 61 62 61q41 0 57 -45q49 -141 129 -141t129 141q16 45 59 45q60 0 60 -61z" />
    <glyph glyph-name="dotaccent" unicode="&#x2d9;" 
d="M579 1204q0 -27 -21 -45t-49 -18q-64 0 -64 67q0 64 68 64q27 0 46.5 -20t19.5 -48z" />
    <glyph glyph-name="ring" unicode="&#x2da;" 
d="M686 1231q0 -72 -51 -123t-123 -51t-123 51t-51 123t51 123t123 51t123 -51t51 -123zM588 1231q0 31 -22.5 53.5t-53.5 22.5t-53.5 -22.5t-22.5 -53.5t22.5 -53.5t53.5 -22.5t53.5 22.5t22.5 53.5z" />
    <glyph glyph-name="ogonek" unicode="&#x2db;" 
d="M869 -199q0 -38 -36 -55q-101 -47 -220 -47q-85 0 -144 38q-69 44 -69 126q0 51 36 122q41 83 87 83q62 0 62 -62q0 -18 -32 -65t-32 -78q0 -43 90 -43q77 0 174 37q17 6 23 6q61 0 61 -62z" />
    <glyph glyph-name="tilde" unicode="&#x2dc;" 
d="M796 1237q0 -14 -4 -25q-43 -108 -170 -108q-52 0 -123 39t-95 39q-43 0 -59 -35v-2q-16 -35 -55 -35q-25 0 -43.5 18.5t-18.5 42.5q0 10 6 25q45 107 173 107q51 0 122 -39t95 -39q40 0 55 35v2q15 34 55 34q62 0 62 -59z" />
    <glyph glyph-name="hungarumlaut" unicode="&#x2dd;" 
d="M753 1280q0 -22 -19 -41l-149 -156q-18 -18 -43 -18q-62 0 -62 59q0 24 19 43l149 156q18 18 43 18q62 0 62 -61zM542 1280q0 -24 -17 -41l-149 -156q-18 -18 -43 -18q-62 0 -62 59q0 26 17 43l149 156q18 18 45 18q60 0 60 -61z" />
    <glyph glyph-name="Delta" unicode="&#x394;" horiz-adv-x="1356" 
d="M1366 0h-1374l586 1473h202zM1122 158l-444 1138l-445 -1138h889z" />
    <glyph glyph-name="Delta" unicode="&#x2206;" horiz-adv-x="1356" 
d="M1366 0h-1374l586 1473h202zM1122 158l-444 1138l-445 -1138h889z" />
    <glyph glyph-name="Omega" unicode="&#x3a9;" horiz-adv-x="1573" 
d="M1473 0h-590v150q195 112 297 278.5t102 374.5q0 239 -126 393q-136 166 -370 166q-221 0 -359 -155t-138 -404q0 -205 103 -373.5t298 -279.5v-150h-590v156h332q-163 132 -242 285.5t-79 334.5q0 317 177 522q187 215 498 215q312 0 499 -213q177 -203 177 -520
q0 -186 -78 -338.5t-243 -285.5h332v-156z" />
    <glyph glyph-name="Omega" unicode="&#x2126;" horiz-adv-x="1573" 
d="M1473 0h-590v150q195 112 297 278.5t102 374.5q0 239 -126 393q-136 166 -370 166q-221 0 -359 -155t-138 -404q0 -205 103 -373.5t298 -279.5v-150h-590v156h332q-163 132 -242 285.5t-79 334.5q0 317 177 522q187 215 498 215q312 0 499 -213q177 -203 177 -520
q0 -186 -78 -338.5t-243 -285.5h332v-156z" />
    <glyph glyph-name="pi" unicode="&#x3c0;" horiz-adv-x="1186" 
d="M1167 1069l-28 -139h-185l-110 -516q-10 -46 -21 -115q-8 -53 -8 -74q0 -106 105 -106q26 0 47 2q15 1 51 8l-29 -129h-6q-24 0 -56.5 -8t-41.5 -8q-226 0 -226 202q0 92 56 351l84 393h-348l-197 -930h-158l197 930h-39q-104 0 -125 -131h-145q25 151 94.5 210.5
t222.5 59.5h866z" />
    <glyph glyph-name="endash" unicode="&#x2013;" 
d="M963 477q0 -60 -62 -59l-780 8q-60 1 -60 61t62 60l780 -8q60 -1 60 -62z" />
    <glyph glyph-name="emdash" unicode="&#x2014;" horiz-adv-x="2048" 
d="M2109 485q0 -59 -61 -59h-2050q-59 0 -59 59q0 25 18 43.5t43 18.5h2050q59 0 59 -62z" />
    <glyph glyph-name="quoteleft" unicode="&#x2018;" horiz-adv-x="274" 
d="M217 1274q-23 -13 -47 -44t-25 -56q70 0 70 -74q0 -32 -22 -54t-54 -22q-33 0 -55 25q-25 28 -25 71q0 55 41 101q46 53 117 53z" />
    <glyph glyph-name="quoteright" unicode="&#x2019;" horiz-adv-x="274" 
d="M217 1178q0 -55 -40 -101q-47 -53 -118 -53q24 13 47 42q24 33 25 58q-70 0 -70 74q0 31 22.5 53.5t53.5 22.5q33 0 56.5 -26.5t23.5 -69.5z" />
    <glyph glyph-name="quotesinglbase" unicode="&#x201a;" horiz-adv-x="274" 
d="M217 47q0 -55 -40 -101q-47 -52 -118 -52q24 12 47.5 43.5t24.5 56.5q-70 0 -70 74q0 31 22.5 53t53.5 22q33 0 56.5 -26t23.5 -70z" />
    <glyph glyph-name="quotedblleft" unicode="&#x201c;" horiz-adv-x="457" 
d="M401 1274q-23 -13 -47 -44t-24 -56q69 0 69 -74q0 -32 -22 -54t-53 -22q-33 0 -56.5 26.5t-23.5 69.5q0 55 40 101q46 53 117 53zM219 1274q-23 -13 -47 -44t-25 -56q70 0 70 -74q0 -32 -22 -54t-54 -22q-33 0 -55 25q-25 28 -25 71q0 55 41 101q46 53 117 53z" />
    <glyph glyph-name="quotedblright" unicode="&#x201d;" horiz-adv-x="457" 
d="M399 1178q0 -55 -40 -101q-46 -53 -117 -53q23 13 46 42q25 33 25 58q-69 0 -69 74q0 31 22 53.5t53 22.5q33 0 56.5 -26.5t23.5 -69.5zM217 1178q0 -55 -40 -101q-47 -53 -118 -53q24 13 47 42q24 33 25 58q-70 0 -70 74q0 31 22.5 53.5t53.5 22.5q33 0 56.5 -26.5
t23.5 -69.5z" />
    <glyph glyph-name="quotedblbase" unicode="&#x201e;" horiz-adv-x="457" 
d="M399 47q0 -55 -40 -101q-46 -52 -117 -52q23 12 47 43.5t24 56.5q-69 0 -69 74q0 31 22 53t53 22q33 0 56.5 -26t23.5 -70zM217 47q0 -55 -40 -101q-47 -52 -118 -52q24 12 47.5 43.5t24.5 56.5q-70 0 -70 74q0 31 22.5 53t53.5 22q33 0 56.5 -26t23.5 -70z" />
    <glyph glyph-name="dagger" unicode="&#x2020;" 
d="M961 909h-373v-1124h-158v1124h-367v146h367v418h158v-418h373v-146z" />
    <glyph glyph-name="daggerdbl" unicode="&#x2021;" 
d="M973 201h-387v-418h-158v418h-377v147h377v559h-377v146h377v420h158v-420h387v-146h-387v-559h387v-147z" />
    <glyph glyph-name="bullet" unicode="&#x2022;" horiz-adv-x="1208" 
d="M899 762q0 -122 -87.5 -209.5t-209.5 -87.5t-208.5 87.5t-86.5 209.5q0 124 86 209.5t211 85.5q124 0 209.5 -85.5t85.5 -209.5z" />
    <glyph glyph-name="ellipsis" unicode="&#x2026;" horiz-adv-x="827" 
d="M766 68q0 -32 -22 -54t-54 -22q-31 0 -53.5 22t-22.5 54q0 31 22.5 53t53.5 22q32 0 54 -22t22 -53zM489 68q0 -32 -22 -54t-53 -22q-32 0 -54 22t-22 54q0 31 22 53t54 22q31 0 53 -22t22 -53zM213 68q0 -32 -22 -54t-54 -22q-31 0 -53.5 22t-22.5 54q0 31 22.5 53
t53.5 22q32 0 54 -22t22 -53z" />
    <glyph glyph-name="perthousand" unicode="&#x2030;" horiz-adv-x="1755" 
d="M1694 289q0 -136 -51 -226q-62 -112 -187 -112q-130 0 -200 94q-62 84 -62 219q0 137 53 251q67 144 189 144q123 0 196 -128q62 -108 62 -242zM561 997q0 -135 -50 -225q-63 -113 -187 -113q-130 0 -200 95q-63 84 -63 219q0 137 53 251q67 144 189 144q124 0 197 -129
q61 -108 61 -242zM979 1329q0 -12 -6 -24l-637 -1340q-16 -33 -51 -33q-58 0 -58 58q0 11 6 24l637 1340q16 32 52 32q57 0 57 -57zM1128 289q0 -136 -50 -226q-63 -112 -187 -112q-130 0 -200 94q-62 84 -62 219q0 138 53 251q67 144 188 144q124 0 197 -128
q61 -108 61 -242zM1581 287q0 84 -33 164q-42 104 -112 104q-64 0 -101 -121q-28 -90 -28 -172q0 -207 149 -207q125 0 125 232zM449 995q0 84 -33 165q-42 104 -113 104q-63 0 -101 -121q-28 -90 -28 -172q0 -207 150 -207q125 0 125 231zM1016 287q0 84 -33 164
q-42 104 -113 104q-63 0 -101 -121q-28 -90 -28 -172q0 -207 150 -207q125 0 125 232z" />
    <glyph glyph-name="guilsinglleft" unicode="&#x2039;" horiz-adv-x="489" 
d="M428 164q0 -60 -61 -60q-35 0 -52 27l-243 383q-11 16 -11 33q0 16 11 33l243 383q17 26 52 26q61 0 61 -59q0 -17 -10 -33l-223 -350l223 -350q10 -16 10 -33z" />
    <glyph glyph-name="guilsinglright" unicode="&#x203a;" horiz-adv-x="489" 
d="M428 547q0 -17 -10 -33l-244 -383q-17 -27 -51 -27q-62 0 -62 60q0 17 11 33l223 350l-223 350q-11 16 -11 33q0 59 62 59q34 0 51 -26l244 -383q10 -17 10 -33z" />
    <glyph glyph-name="fraction" unicode="&#x2044;" horiz-adv-x="881" 
d="M815 1329q0 -13 -6 -25l-637 -1339q-15 -33 -49 -33q-57 0 -57 58q0 13 5 25l637 1339q16 32 52 32q55 0 55 -57z" />
    <glyph glyph-name="franc" unicode="&#x20a3;" horiz-adv-x="1485" 
d="M868 1419q0 -56 -59 -57l-616 -10l6 -623l454 14q62 2 62 -55q0 -58 -60 -59l-456 -13l4 -571q0 -61 -60 -61q-61 0 -61 61l-10 1358q-1 58 59 59l676 13q61 1 61 -56zM1506 844q0 -56 -60 -56q-14 0 -44.5 3.5t-45.5 3.5q-282 0 -383 -287l25 -440q1 -25 -16 -45.5
t-42 -20.5q-62 0 -65 57l-51 920q-2 24 15.5 44.5t41.5 20.5q61 0 63 -57l15 -282q145 204 397 204q70 0 94 -5q56 -14 56 -60z" />
    <glyph glyph-name="Euro" unicode="&#x20ac;" horiz-adv-x="1051" 
d="M997 285q0 -30 -55 -101q-135 -172 -332 -172t-312 121q-110 116 -120 316l-104 2q-60 1 -60 59t62 55l102 -4q2 60 8 125l-112 2q-60 1 -60 60t62 57l125 -4q35 235 111 417q116 277 282 277q174 0 270 -278q72 -208 72 -431q0 -63 -57 -63q-60 0 -64 57
q-37 600 -221 600q-100 0 -187 -251q-57 -163 -83 -330l284 -4q60 -1 60 -62q0 -56 -62 -55l-299 6q-6 -63 -8 -125l229 -4q60 -1 60 -59q0 -57 -62 -56l-225 6q24 -319 309 -319q138 0 238 129q18 29 36 57q24 33 54 33q59 0 59 -61z" />
    <glyph glyph-name="trademark" unicode="&#x2122;" horiz-adv-x="1706" 
d="M1389 922h-82v458l-172 -458h-54l-180 458v-458h-82v534h129l160 -405l149 405h132v-534zM694 1389h-172v-467h-94v467h-174v67h440v-67z" />
    <glyph glyph-name="partialdiff" unicode="&#x2202;" horiz-adv-x="1044" 
d="M936 750q0 -274 -105 -494q-134 -281 -378 -281q-156 0 -249 114q-87 107 -87 265q0 176 97 303q107 140 278 140q100 0 163 -46.5t99 -146.5q26 166 26 320q0 141 -39 217t-112 76q-48 0 -117 -63.5t-109 -63.5q-28 0 -50.5 22t-22.5 51q0 58 68 105t163 47
q171 0 273 -152.5t102 -412.5zM709 483q0 244 -172 244q-138 0 -206 -173q-50 -126 -50 -288q0 -115 44.5 -177t127.5 -62q111 0 184 129q72 126 72 327z" />
    <glyph glyph-name="product" unicode="&#x220f;" horiz-adv-x="1528" 
d="M1368 -393h-201v1693h-809v-1693h-198v1866h1208v-1866z" />
    <glyph glyph-name="summation" unicode="&#x2211;" horiz-adv-x="1346" 
d="M1307 -393h-1289v139l738 813l-705 758v156h1239v-166h-989l690 -744l-719 -792h1035v-164z" />
    <glyph glyph-name="minus" unicode="&#x2212;" horiz-adv-x="1706" 
d="M1452 551h-1198v119h1198v-119z" />
    <glyph glyph-name="radical" unicode="&#x221a;" horiz-adv-x="1288" 
d="M1288 1565h-119l-594 -1606h-53l-323 893l-119 -43l-23 68l262 92l265 -729l522 1407h182v-82z" />
    <glyph glyph-name="infinity" unicode="&#x221e;" horiz-adv-x="1706" 
d="M1479 616q0 -152 -70 -259q-80 -124 -225 -124q-178 0 -318 261q-136 -265 -321 -265q-146 0 -236 121q-82 110 -82 260q0 172 83 277.5t214 105.5q184 0 316 -266q68 140 146 205t175 65q146 0 236 -120q82 -110 82 -261zM1415 623q0 100 -55 172q-60 79 -158 79
q-84 0 -153 -73t-144 -242q101 -188 275 -188q100 0 167.5 72t67.5 180zM803 666q-102 190 -273 190q-105 0 -171 -71t-66 -183q0 -100 55 -171q61 -79 158 -79q84 0 152 70.5t145 243.5z" />
    <glyph glyph-name="integral" unicode="&#x222b;" horiz-adv-x="1020" 
d="M973 1405q0 -107 -113 -107q-54 0 -85.5 34.5t-31.5 92.5q0 23 -20 23q-105 0 -119 -635l-6 -244q-10 -316 -31 -460q-43 -306 -186 -420q-75 -60 -168 -60q-74 0 -120 38t-46 97q0 115 115 115q43 0 77.5 -27t34.5 -69q0 -26 7 -37q8 -14 20 -14q104 0 117 663l4 217
q9 377 52 560q88 376 331 376q72 0 118 -34q50 -39 50 -109z" />
    <glyph glyph-name="approxequal" unicode="&#x2248;" horiz-adv-x="1706" 
d="M1530 803q-204 -144 -387 -144q-103 0 -289 68q-192 70 -291 70q-86 0 -171 -34.5t-214 -123.5v131q211 145 387 145q109 0 301 -69q187 -68 277 -68q88 0 175 34.5t212 121.5v-131zM1530 453q-208 -146 -389 -146q-97 0 -287 69.5t-291 69.5q-79 0 -168.5 -36
t-216.5 -123v131q211 145 387 145q108 0 301 -69q188 -68 277 -68q160 0 387 158v-131z" />
    <glyph glyph-name="approxequal" unicode="&#x22f2;" horiz-adv-x="1706" 
d="M1530 803q-204 -144 -387 -144q-103 0 -289 68q-192 70 -291 70q-86 0 -171 -34.5t-214 -123.5v131q211 145 387 145q109 0 301 -69q187 -68 277 -68q88 0 175 34.5t212 121.5v-131zM1530 453q-208 -146 -389 -146q-97 0 -287 69.5t-291 69.5q-79 0 -168.5 -36
t-216.5 -123v131q211 145 387 145q108 0 301 -69q188 -68 277 -68q160 0 387 158v-131z" />
    <glyph glyph-name="notequal" unicode="&#x2260;" horiz-adv-x="1706" 
d="M1452 360h-709l-251 -319l-89 70l197 249h-346v115h420l211 270h-631v115h704l252 320l88 -70l-196 -250h350v-115h-424l-211 -270h635v-115z" />
    <glyph glyph-name="lessequal" unicode="&#x2264;" horiz-adv-x="1706" 
d="M1444 295l-1182 399v101l1182 397v-125l-977 -324l977 -323v-125zM1444 33h-1182v117h1182v-117z" />
    <glyph glyph-name="greaterequal" unicode="&#x2265;" horiz-adv-x="1706" 
d="M1444 694l-1182 -399v125l979 323l-979 324v125l1182 -397v-101zM1444 33h-1182v117h1182v-117z" />
    <glyph glyph-name="lozenge" unicode="&#x25ca;" horiz-adv-x="1012" 
d="M1006 592l-500 -1069l-500 1069l500 1061zM891 592l-385 817l-385 -817l385 -825z" />
    <glyph glyph-name="apple" unicode="&#xf000;" horiz-adv-x="1618" 
d="M1167 1552q0 -131 -103 -234.5t-204 -103.5h-8h-8q-3 1 -8 3q-1 4 -2 14v22q0 132 102 237q96 99 229 124q1 -7 2 -23v-39zM1505 403q-90 -195 -152 -279q-118 -159 -257 -159q-46 0 -129.5 33t-124.5 33q-44 0 -130 -33t-128 -33q-129 0 -258 176q-213 291 -213 596
q0 211 117 349q124 145 331 145q67 0 156 -35q84 -33 123 -33q31 0 123.5 35t150.5 35q113 0 198 -38.5t161 -125.5q-201 -128 -201 -328q0 -114 59 -199.5t174 -138.5z" />
    <glyph glyph-name="fi" unicode="&#xf001;" horiz-adv-x="979" 
d="M901 10q1 -24 -16 -43.5t-41 -19.5q-61 0 -64 57l-39 817q-1 25 16 44.5t42 19.5q60 0 63 -58zM762 1227q0 -58 -62 -58q-24 0 -53 37q-64 82 -88 103q-53 47 -117 47q-79 0 -118 -105q-29 -76 -29 -172q0 -59 12 -364l244 12q25 1 45 -14t20 -39q0 -57 -57 -60l-246 -12
l27 -657q1 -25 -15.5 -44.5t-41.5 -19.5q-61 0 -64 58l-29 655l-145 -6q-63 -3 -63 53t57 59l147 9q-12 305 -12 370q0 152 56 258q70 133 208 133q163 0 281 -159q43 -59 43 -84z" />
    <glyph glyph-name="fl" unicode="&#xf002;" horiz-adv-x="977" 
d="M899 -68q1 -24 -17 -43.5t-42 -19.5q-61 0 -64 57l-53 1248q-12 -5 -23 -5q-24 0 -53 37q-64 82 -88 103q-53 47 -117 47q-79 0 -118 -105q-29 -76 -29 -172q0 -59 12 -364l244 12q25 1 45 -14t20 -39q0 -57 -57 -60l-246 -12l27 -657q1 -25 -15.5 -44.5t-41.5 -19.5
q-61 0 -64 58l-29 655l-145 -6q-63 -3 -63 53t57 59l147 9q-12 305 -12 370q0 152 56 258q70 133 208 133q162 0 279 -155l-8 170q-2 24 15.5 43.5t41.5 19.5q61 0 63 -57z" />
    <glyph glyph-name="glyph260" horiz-adv-x="0" 
 />
    </font>
</defs>
</svg>
